<?xml version="1.0" encoding="UTF-8" standalone="no"?>
<svg
   xmlns:dc="http://purl.org/dc/elements/1.1/"
   xmlns:cc="http://creativecommons.org/ns#"
   xmlns:rdf="http://www.w3.org/1999/02/22-rdf-syntax-ns#"
   xmlns:svg="http://www.w3.org/2000/svg"
   xmlns="http://www.w3.org/2000/svg"
   xmlns:xlink="http://www.w3.org/1999/xlink"
   xmlns:sodipodi="http://sodipodi.sourceforge.net/DTD/sodipodi-0.dtd"
   xmlns:inkscape="http://www.inkscape.org/namespaces/inkscape"
   sodipodi:docname="welcome.svg"
   inkscape:version="1.0beta2 (2b71d25, 2019-12-03)"
   id="svg891"
   version="1.1"
   viewBox="0 0 210 81.491668"
   height="308"
   width="793.70081">
  <defs
     id="defs885">
    <linearGradient
       id="linearGradient1497"
       inkscape:collect="always">
      <stop
         id="stop1493"
         offset="0"
         style="stop-color:#ff6600;stop-opacity:1;" />
      <stop
         id="stop1495"
         offset="1"
         style="stop-color:#ffd42a;stop-opacity:1" />
    </linearGradient>
    <style
       id="style2968"><![CDATA[
.class_blink {
  -inkscape-font-specification:Impact;
  fill:url(#linearGradient2563);
  fill-opacity:1;
  font-family:Impact;
  font-size:10.5833px;
  font-stretch:normal;
  font-style:normal;
  font-variant:normal;
  font-weight:normal;
  line-height:1.25;
  stroke:none;
  stroke-width:0.264583;
}
]]></style>
<style>
        #path3014, #g3175 {
          animation: blink-animation 1200ms steps(5, start) infinite;
        }
        @keyframes blink-animation {
          to {
            visibility: hidden;
          }
        }
      </style>
    <linearGradient
       y2="117.64541"
       x2="144.56676"
       y1="117.64541"
       x1="83.221848"
       gradientTransform="matrix(2.5706483,0,0,2.7600207,-213.14135,-284.81935)"
       gradientUnits="userSpaceOnUse"
       id="linearGradient3064"
       xlink:href="#linearGradient1497"
       inkscape:collect="always" />
    <linearGradient
       gradientTransform="matrix(2.5706483,0,0,2.7600207,-5.3259882,-9.7711514)"
       gradientUnits="userSpaceOnUse"
       y2="20.906595"
       x2="81.990425"
       y1="20.906595"
       x1="36.234428"
       id="linearGradient3085"
       xlink:href="#linearGradient1497"
       inkscape:collect="always" />
  </defs>
  <sodipodi:namedview
     units="px"
     inkscape:window-maximized="0"
     inkscape:window-y="25"
     inkscape:window-x="0"
     inkscape:window-height="776"
     inkscape:window-width="1440"
     showgrid="false"
     inkscape:document-rotation="0"
     inkscape:current-layer="layer1"
     inkscape:document-units="mm"
     inkscape:cy="287.24978"
     inkscape:cx="260.16379"
     inkscape:zoom="0.60029791"
     inkscape:pageshadow="2"
     inkscape:pageopacity="0.0"
     borderopacity="1.0"
     bordercolor="#666666"
     pagecolor="#ffffff"
     id="base" />
  <metadata
     id="metadata888">
    <rdf:RDF>
      <cc:Work
         rdf:about="">
        <dc:format>image/svg+xml</dc:format>
        <dc:type
           rdf:resource="http://purl.org/dc/dcmitype/StillImage" />
        <dc:title></dc:title>
      </cc:Work>
    </rdf:RDF>
  </metadata>
  <g
     id="layer1"
     inkscape:groupmode="layer"
     inkscape:label="Layer 1">
    <g
       transform="matrix(2.5706481,0,0,2.7600205,-5.3259878,-9.7711507)"
       id="g3175">
      <path
         inkscape:connector-curvature="0"
         style="font-style:normal;font-variant:normal;font-weight:normal;font-stretch:normal;font-size:10.5833px;line-height:1.25;font-family:Impact;-inkscape-font-specification:Impact;opacity:1;fill:#aa4400;fill-opacity:1;stroke:none;stroke-width:0.29431"
         d="m 80.6326,12.2246 -2.2579,0.5782 v 9.5718 l 2.1126,-0.541 0.1453,-0.6284 c 0.19,0.1957 0.3987,0.3257 0.6259,0.3896 0.231,0.0633 0.4788,0.0607 0.7434,-0.007 0.3688,-0.0945 0.6874,-0.2785 0.9557,-0.5522 0.2682,-0.2776 0.4377,-0.5652 0.5085,-0.8632 0.0745,-0.3029 0.1118,-0.7424 0.1118,-1.3178 v -3.5355 c 0,-0.5794 -0.013,-0.9544 -0.0392,-1.1251 -0.0224,-0.1716 -0.0931,-0.3348 -0.2123,-0.4895 -0.1193,-0.1547 -0.2925,-0.2543 -0.5198,-0.2986 -0.2273,-0.0443 -0.4956,-0.0267 -0.8048,0.0526 -0.2683,0.0688 -0.5179,0.1901 -0.7489,0.3636 -0.2273,0.1686 -0.4341,0.3906 -0.6204,0.6669 z m 0.427,2.8763 c 0.0887,9e-4 0.1514,0.0442 0.1878,0.1294 0.0485,0.1099 0.0727,0.3674 0.0727,0.7734 v 3.3054 c 0,0.4651 -0.0224,0.7645 -0.0671,0.8981 -0.041,0.1327 -0.1323,0.2167 -0.2739,0.253 -0.1378,0.0352 -0.231,0 -0.2794,-0.1058 -0.0447,-0.1067 -0.067,-0.3711 -0.067,-0.7928 v -3.3818 c 0,-0.4375 0.0206,-0.7143 0.0614,-0.8312 0.041,-0.1209 0.1304,-0.1994 0.2682,-0.2347 0.0354,-0.009 0.0677,-0.0133 0.0972,-0.013 z M 77.5532,14.74 v 7.8455 l -2.297,0.5884 0.0392,-0.6604 c -0.1565,0.3042 -0.3502,0.5529 -0.5813,0.7461 -0.2272,0.1882 -0.4899,0.3206 -0.788,0.3969 -0.339,0.0869 -0.6203,0.0959 -0.8439,0.027 C 72.8586,23.6147 72.6928,23.4896 72.5848,23.3084 72.4805,23.1262 72.4153,22.9262 72.3892,22.7082 72.3631,22.4863 72.35,22.0383 72.35,21.3643 V 16.073 l 2.2579,-0.5784 v 5.3386 c 0,0.6109 0.0168,0.9693 0.0503,1.075 0.0373,0.1047 0.1341,0.1371 0.2906,0.097 0.1677,-0.043 0.2664,-0.1274 0.2962,-0.2533 0.0335,-0.1268 0.0503,-0.5114 0.0503,-1.1539 v -5.2795 z m -6.0416,-0.1786 v 9.5717 l -2.3529,0.6028 v -4.0203 l -0.7042,0.1804 v 4.0203 l -2.3529,0.6028 v -9.5718 l 2.3529,-0.6028 v 3.4232 l 0.7042,-0.1804 v -3.4232 z m -6.5836,2.3664 v 1.2357 l 0.6092,-0.1561 v 1.2416 l -0.6092,0.156 v 4.1977 c 0,0.5163 0.0242,0.7978 0.0727,0.8445 0.0521,0.0457 0.2626,0.0214 0.6315,-0.0731 v 1.2652 l -0.911,0.2334 c -0.5142,0.1317 -0.8812,0.2041 -1.101,0.217 -0.2198,0.009 -0.4136,-0.0458 -0.5812,-0.1644 -0.1677,-0.1226 -0.272,-0.2831 -0.313,-0.4815 -0.0409,-0.2023 -0.0614,-0.6937 -0.0614,-1.4741 v -3.9848 l -0.4863,0.1246 v -1.2416 l 0.4863,-0.1245 v -1.2357 z m -3.1857,1.8626 v 7.8454 l -2.325,0.5956 V 19.386 Z m -3.1633,2.6076 -2.3529,0.6028 v -0.8691 c 0,-0.5479 -0.0224,-0.885 -0.067,-1.0115 -0.0448,-0.1265 -0.151,-0.1683 -0.3186,-0.1254 -0.1453,0.0372 -0.2441,0.1217 -0.2962,0.2533 -0.0522,0.1316 -0.0782,0.4418 -0.0782,0.9305 v 4.5937 c 0,0.4297 0.026,0.7068 0.0782,0.8314 0.0522,0.1206 0.1565,0.1609 0.313,0.1208 0.1713,-0.0439 0.2869,-0.1504 0.3465,-0.3193 0.0634,-0.17 0.0951,-0.4777 0.0951,-0.923 V 24.347 l -0.4751,0.1217 v -1.4544 l 2.7553,-0.7058 v 5.1376 l -1.481,0.3795 -0.218,-0.63 c -0.1602,0.3366 -0.3633,0.6113 -0.6092,0.8241 -0.2422,0.2079 -0.5291,0.3543 -0.8607,0.4392 -0.3949,0.1012 -0.7656,0.0957 -1.1122,-0.0166 -0.3427,-0.1171 -0.6035,-0.3025 -0.7824,-0.5563 -0.1788,-0.2537 -0.2906,-0.5384 -0.3353,-0.8541 -0.0447,-0.3196 -0.0671,-0.8085 -0.0671,-1.4668 v -2.8437 c 0,-0.9144 0.0466,-1.5905 0.1398,-2.0282 0.0931,-0.4377 0.3595,-0.8843 0.7992,-1.3399 0.4433,-0.4604 1.0153,-0.7803 1.7157,-0.9598 0.6893,-0.1766 1.2613,-0.1731 1.7158,0.0103 0.4546,0.1831 0.7508,0.4639 0.8887,0.8425 0.1378,0.3746 0.2068,0.954 0.2068,1.7384 z m -7.8915,0.2243 -0.6483,5.8418 c -0.1006,0.9244 -0.1863,1.5593 -0.2571,1.9045 -0.0671,0.3443 -0.1807,0.6434 -0.3409,0.8973 -0.1602,0.2539 -0.3838,0.4669 -0.6707,0.6389 -0.2832,0.175 -0.7377,0.3427 -1.3637,0.503 l -1.3692,0.3508 v -1.2534 c 0.3502,-0.0897 0.5756,-0.1652 0.6762,-0.2264 0.1006,-0.0652 0.1509,-0.1628 0.1509,-0.2929 0,-0.063 -0.0466,-0.325 -0.1397,-0.786 l -1.2352,-6.246 2.0512,-0.5255 0.7377,5.1024 0.3577,-5.383 z M 45.0819,21.332 v 9.5718 l -2.0567,0.5269 v -6.462 l -0.8216,6.6724 -1.4587,0.3737 -0.8663,-6.0923 v 6.3142 l -2.0567,0.5269 v -9.5718 l 3.046,-0.7803 c 0.0894,0.5526 0.1844,1.2062 0.285,1.9608 l 0.3241,2.3528 0.5366,-4.6071 z m 16.6604,-4.268 v 1.2475 l -2.325,0.5956 v -1.2475 z"
         id="path3163" />
      <path
         inkscape:connector-curvature="0"
         style="font-style:normal;font-variant:normal;font-weight:normal;font-stretch:normal;font-size:10.5833px;line-height:1.25;font-family:Impact;-inkscape-font-specification:Impact;opacity:1;fill:#b24700;fill-opacity:1;stroke:none;stroke-width:0.29431"
         d="m 80.3151,11.9071 -2.2579,0.5782 v 9.5718 l 2.1126,-0.541 0.1453,-0.6284 c 0.19,0.1957 0.3987,0.3257 0.6259,0.3896 0.231,0.0633 0.4788,0.0607 0.7434,-0.007 0.3688,-0.0945 0.6874,-0.2785 0.9557,-0.5522 0.2682,-0.2776 0.4377,-0.5652 0.5085,-0.8632 0.0745,-0.3029 0.1118,-0.7424 0.1118,-1.3178 v -3.5355 c 0,-0.5794 -0.013,-0.9544 -0.0392,-1.1251 -0.0224,-0.1716 -0.0931,-0.3348 -0.2123,-0.4895 -0.1193,-0.1547 -0.2925,-0.2543 -0.5198,-0.2986 -0.2273,-0.0443 -0.4956,-0.0267 -0.8048,0.0526 -0.2683,0.0688 -0.5179,0.1901 -0.7489,0.3636 -0.2273,0.1686 -0.4341,0.3906 -0.6204,0.6669 z m 0.427,2.8763 c 0.0887,9e-4 0.1514,0.0442 0.1878,0.1294 0.0485,0.1099 0.0727,0.3674 0.0727,0.7734 v 3.3054 c 0,0.4651 -0.0224,0.7645 -0.0671,0.8981 -0.041,0.1327 -0.1323,0.2167 -0.2739,0.253 -0.1378,0.0352 -0.231,0 -0.2794,-0.1058 -0.0447,-0.1067 -0.067,-0.3711 -0.067,-0.7928 v -3.3818 c 0,-0.4375 0.0206,-0.7143 0.0614,-0.8312 0.041,-0.1209 0.1304,-0.1994 0.2682,-0.2347 0.0354,-0.009 0.0677,-0.0133 0.0972,-0.013 z m -3.5064,-0.3609 v 7.8455 l -2.297,0.5884 0.0392,-0.6604 c -0.1565,0.3042 -0.3502,0.5529 -0.5813,0.7461 -0.2272,0.1882 -0.4899,0.3206 -0.788,0.3969 -0.339,0.0869 -0.6203,0.0959 -0.8439,0.027 -0.2236,-0.0688 -0.3894,-0.1939 -0.4974,-0.3751 -0.1043,-0.1822 -0.1695,-0.3822 -0.1956,-0.6002 -0.0261,-0.2219 -0.0392,-0.6699 -0.0392,-1.3439 v -5.2913 l 2.2579,-0.5784 v 5.3386 c 0,0.6109 0.0168,0.9693 0.0503,1.075 0.0373,0.1047 0.1341,0.1371 0.2906,0.097 0.1677,-0.043 0.2664,-0.1274 0.2962,-0.2533 0.0335,-0.1268 0.0503,-0.5114 0.0503,-1.1539 V 15.001 Z m -6.0416,-0.1786 v 9.5717 l -2.3529,0.6028 v -4.0203 l -0.7042,0.1804 v 4.0203 l -2.3529,0.6028 V 15.6298 L 68.137,15.027 v 3.4232 l 0.7042,-0.1804 v -3.4232 z m -6.5836,2.3664 v 1.2357 l 0.6092,-0.1561 v 1.2416 l -0.6092,0.156 v 4.1977 c 0,0.5163 0.0242,0.7978 0.0727,0.8445 0.0521,0.0457 0.2626,0.0214 0.6315,-0.0731 v 1.2652 l -0.911,0.2334 c -0.5142,0.1317 -0.8812,0.2041 -1.101,0.217 -0.2198,0.009 -0.4136,-0.0458 -0.5812,-0.1644 -0.1677,-0.1226 -0.272,-0.2831 -0.313,-0.4815 -0.0409,-0.2023 -0.0614,-0.6937 -0.0614,-1.4741 v -3.9848 l -0.4863,0.1246 v -1.2416 l 0.4863,-0.1245 v -1.2357 z m -3.1857,1.8626 v 7.8454 l -2.325,0.5956 v -7.8454 z m -3.1633,2.6076 -2.3529,0.6028 v -0.8691 c 0,-0.5479 -0.0224,-0.885 -0.067,-1.0115 -0.0448,-0.1265 -0.151,-0.1683 -0.3186,-0.1254 -0.1453,0.0372 -0.2441,0.1217 -0.2962,0.2533 -0.0522,0.1316 -0.0782,0.4418 -0.0782,0.9305 v 4.5937 c 0,0.4297 0.026,0.7068 0.0782,0.8314 0.0522,0.1206 0.1565,0.1609 0.313,0.1208 0.1713,-0.0439 0.2869,-0.1504 0.3465,-0.3193 0.0634,-0.17 0.0951,-0.4777 0.0951,-0.923 v -1.1352 l -0.4751,0.1217 v -1.4544 l 2.7553,-0.7058 v 5.1376 l -1.481,0.3795 -0.218,-0.63 c -0.1602,0.3366 -0.3633,0.6113 -0.6092,0.8241 -0.2422,0.2079 -0.5291,0.3543 -0.8607,0.4392 -0.3949,0.1012 -0.7656,0.0957 -1.1122,-0.0166 -0.3427,-0.1171 -0.6035,-0.3025 -0.7824,-0.5563 -0.1788,-0.2537 -0.2906,-0.5384 -0.3353,-0.8541 -0.0447,-0.3196 -0.0671,-0.8085 -0.0671,-1.4668 v -2.8437 c 0,-0.9144 0.0466,-1.5905 0.1398,-2.0282 0.0931,-0.4377 0.3595,-0.8843 0.7992,-1.3399 0.4433,-0.4604 1.0153,-0.7803 1.7157,-0.9598 0.6893,-0.1766 1.2613,-0.1731 1.7158,0.0103 0.4546,0.1831 0.7508,0.4639 0.8887,0.8425 0.1378,0.3746 0.2068,0.954 0.2068,1.7384 z m -7.8915,0.2243 -0.6483,5.8418 c -0.1006,0.9244 -0.1863,1.5593 -0.2571,1.9045 -0.0671,0.3443 -0.1807,0.6434 -0.3409,0.8973 -0.1602,0.2539 -0.3838,0.4669 -0.6707,0.6389 -0.2832,0.175 -0.7377,0.3427 -1.3637,0.503 l -1.3692,0.3508 v -1.2534 c 0.3502,-0.0897 0.5756,-0.1652 0.6762,-0.2264 0.1006,-0.0652 0.1509,-0.1628 0.1509,-0.2929 0,-0.063 -0.0466,-0.325 -0.1397,-0.786 l -1.2352,-6.246 2.0512,-0.5255 0.7377,5.1024 0.3577,-5.383 z m -5.6056,-0.2903 v 9.5718 l -2.0567,0.5269 v -6.462 l -0.8216,6.6724 -1.4587,0.3737 -0.8663,-6.0923 v 6.3142 l -2.0567,0.5269 v -9.5718 l 3.046,-0.7803 c 0.0894,0.5526 0.1844,1.2062 0.285,1.9608 l 0.3241,2.3528 0.5366,-4.6071 z m 16.6604,-4.268 v 1.2475 l -2.325,0.5956 v -1.2475 z"
         id="path3165" />
      <path
         inkscape:connector-curvature="0"
         style="font-style:normal;font-variant:normal;font-weight:normal;font-stretch:normal;font-size:10.5833px;line-height:1.25;font-family:Impact;-inkscape-font-specification:Impact;opacity:1;fill:#ba4a00;fill-opacity:1;stroke:none;stroke-width:0.29431"
         d="m 79.9976,11.5896 -2.2579,0.5782 v 9.5718 l 2.1126,-0.541 0.1453,-0.6284 c 0.19,0.1957 0.3987,0.3257 0.6259,0.3896 0.231,0.0633 0.4788,0.0607 0.7434,-0.007 0.3688,-0.0945 0.6874,-0.2785 0.9557,-0.5522 0.2682,-0.2776 0.4377,-0.5652 0.5085,-0.8632 0.0745,-0.3029 0.1118,-0.7424 0.1118,-1.3178 v -3.5355 c 0,-0.5794 -0.013,-0.9544 -0.0392,-1.1251 -0.0224,-0.1716 -0.0931,-0.3348 -0.2123,-0.4895 -0.1193,-0.1547 -0.2925,-0.2543 -0.5198,-0.2986 -0.2273,-0.0443 -0.4956,-0.0267 -0.8048,0.0526 -0.2683,0.0688 -0.5179,0.1901 -0.7489,0.3636 -0.2273,0.1686 -0.4341,0.3906 -0.6204,0.6669 z m 0.427,2.8763 c 0.0887,9e-4 0.1514,0.0442 0.1878,0.1294 0.0485,0.1099 0.0727,0.3674 0.0727,0.7734 v 3.3054 c 0,0.4651 -0.0224,0.7645 -0.0671,0.8981 -0.041,0.1327 -0.1323,0.2167 -0.2739,0.253 -0.1378,0.0352 -0.231,0 -0.2794,-0.1058 -0.0447,-0.1067 -0.067,-0.3711 -0.067,-0.7928 v -3.3818 c 0,-0.4375 0.0206,-0.7143 0.0614,-0.8312 0.041,-0.1209 0.1304,-0.1994 0.2682,-0.2347 0.0354,-0.009 0.0677,-0.0133 0.0972,-0.013 z M 76.9182,14.105 v 7.8455 l -2.297,0.5884 0.0392,-0.6604 c -0.1565,0.3042 -0.3502,0.5529 -0.5813,0.7461 -0.2272,0.1882 -0.4899,0.3206 -0.788,0.3969 -0.339,0.0869 -0.6203,0.0959 -0.8439,0.027 C 72.2236,22.9797 72.0578,22.8546 71.9498,22.6734 71.8455,22.4912 71.7803,22.2912 71.7542,22.0732 71.7281,21.8513 71.715,21.4033 71.715,20.7293 V 15.438 l 2.2579,-0.5784 v 5.3386 c 0,0.6109 0.0168,0.9693 0.0503,1.075 0.0373,0.1047 0.1341,0.1371 0.2906,0.097 0.1677,-0.043 0.2664,-0.1274 0.2962,-0.2533 0.0335,-0.1268 0.0503,-0.5114 0.0503,-1.1539 v -5.2795 z m -6.0416,-0.1786 v 9.5717 l -2.3529,0.6028 v -4.0203 l -0.7042,0.1804 v 4.0203 l -2.3529,0.6028 v -9.5718 l 2.3529,-0.6028 v 3.4232 l 0.7042,-0.1804 v -3.4232 z m -6.5836,2.3664 v 1.2357 l 0.6092,-0.1561 V 18.614 L 64.293,18.77 v 4.1977 c 0,0.5163 0.0242,0.7978 0.0727,0.8445 0.0521,0.0457 0.2626,0.0214 0.6315,-0.0731 v 1.2652 l -0.911,0.2334 c -0.5142,0.1317 -0.8812,0.2041 -1.101,0.217 -0.2198,0.009 -0.4136,-0.0458 -0.5812,-0.1644 -0.1677,-0.1226 -0.272,-0.2831 -0.313,-0.4815 -0.0409,-0.2023 -0.0614,-0.6937 -0.0614,-1.4741 v -3.9848 l -0.4863,0.1246 v -1.2416 l 0.4863,-0.1245 v -1.2357 z m -3.1857,1.8626 v 7.8454 l -2.325,0.5956 V 18.751 Z m -3.1633,2.6076 -2.3529,0.6028 v -0.8691 c 0,-0.5479 -0.0224,-0.885 -0.067,-1.0115 -0.0448,-0.1265 -0.151,-0.1683 -0.3186,-0.1254 -0.1453,0.0372 -0.2441,0.1217 -0.2962,0.2533 -0.0522,0.1316 -0.0782,0.4418 -0.0782,0.9305 v 4.5937 c 0,0.4297 0.026,0.7068 0.0782,0.8314 0.0522,0.1206 0.1565,0.1609 0.313,0.1208 0.1713,-0.0439 0.2869,-0.1504 0.3465,-0.3193 0.0634,-0.17 0.0951,-0.4777 0.0951,-0.923 V 23.712 l -0.4751,0.1217 v -1.4544 l 2.7553,-0.7058 v 5.1376 l -1.481,0.3795 -0.218,-0.63 c -0.1602,0.3366 -0.3633,0.6113 -0.6092,0.8241 -0.2422,0.2079 -0.5291,0.3543 -0.8607,0.4392 -0.3949,0.1012 -0.7656,0.0957 -1.1122,-0.0166 C 53.3203,27.6902 53.0595,27.5048 52.8806,27.251 52.7018,26.9973 52.59,26.7126 52.5453,26.3969 52.5006,26.0773 52.4782,25.5884 52.4782,24.9301 v -2.8437 c 0,-0.9144 0.0466,-1.5905 0.1398,-2.0282 0.0931,-0.4377 0.3595,-0.8843 0.7992,-1.3399 0.4433,-0.4604 1.0153,-0.7803 1.7157,-0.9598 0.6893,-0.1766 1.2613,-0.1731 1.7158,0.0103 0.4546,0.1831 0.7508,0.4639 0.8887,0.8425 0.1378,0.3746 0.2068,0.954 0.2068,1.7384 z m -7.8915,0.2243 -0.6483,5.8418 c -0.1006,0.9244 -0.1863,1.5593 -0.2571,1.9045 -0.0671,0.3443 -0.1807,0.6434 -0.3409,0.8973 -0.1602,0.2539 -0.3838,0.4669 -0.6707,0.6389 -0.2832,0.175 -0.7377,0.3427 -1.3637,0.503 l -1.3692,0.3508 v -1.2534 c 0.3502,-0.0897 0.5756,-0.1652 0.6762,-0.2264 0.1006,-0.0652 0.1509,-0.1628 0.1509,-0.2929 0,-0.063 -0.0466,-0.325 -0.1397,-0.786 l -1.2352,-6.246 2.0512,-0.5255 0.7377,5.1024 0.3577,-5.383 z M 44.4469,20.697 v 9.5718 l -2.0567,0.5269 v -6.462 l -0.8216,6.6724 -1.4587,0.3737 -0.8663,-6.0923 v 6.3142 l -2.0567,0.5269 v -9.5718 l 3.046,-0.7803 c 0.0894,0.5526 0.1844,1.2062 0.285,1.9608 l 0.3241,2.3528 0.5366,-4.6071 z m 16.6604,-4.268 v 1.2475 l -2.325,0.5956 v -1.2475 z"
         id="path3167" />
      <path
         inkscape:connector-curvature="0"
         style="font-style:normal;font-variant:normal;font-weight:normal;font-stretch:normal;font-size:10.5833px;line-height:1.25;font-family:Impact;-inkscape-font-specification:Impact;opacity:1;fill:#c34e00;fill-opacity:1;stroke:none;stroke-width:0.29431"
         d="m 79.6801,11.2721 -2.2579,0.5782 v 9.5718 l 2.1126,-0.541 0.1453,-0.6284 c 0.19,0.1957 0.3987,0.3257 0.6259,0.3896 0.231,0.0633 0.4788,0.0607 0.7434,-0.007 0.3688,-0.0945 0.6874,-0.2785 0.9557,-0.5522 0.2682,-0.2776 0.4377,-0.5652 0.5085,-0.8632 0.0745,-0.3029 0.1118,-0.7424 0.1118,-1.3178 v -3.5355 c 0,-0.5794 -0.013,-0.9544 -0.0392,-1.1251 -0.0224,-0.1716 -0.0931,-0.3348 -0.2123,-0.4895 -0.1193,-0.1547 -0.2925,-0.2543 -0.5198,-0.2986 -0.2273,-0.0443 -0.4956,-0.0267 -0.8048,0.0526 -0.2683,0.0688 -0.5179,0.1901 -0.7489,0.3636 -0.2273,0.1686 -0.4341,0.3906 -0.6204,0.6669 z m 0.427,2.8763 c 0.0887,9e-4 0.1514,0.0442 0.1878,0.1294 0.0485,0.1099 0.0727,0.3674 0.0727,0.7734 v 3.3054 c 0,0.4651 -0.0224,0.7645 -0.0671,0.8981 -0.041,0.1327 -0.1323,0.2167 -0.2739,0.253 -0.1378,0.0352 -0.231,0 -0.2794,-0.1058 -0.0447,-0.1067 -0.067,-0.3711 -0.067,-0.7928 v -3.3818 c 0,-0.4375 0.0206,-0.7143 0.0614,-0.8312 0.041,-0.1209 0.1304,-0.1994 0.2682,-0.2347 0.0354,-0.009 0.0677,-0.0133 0.0972,-0.013 z m -3.5064,-0.3609 v 7.8455 l -2.297,0.5884 0.0392,-0.6604 c -0.1565,0.3042 -0.3502,0.5529 -0.5813,0.7461 -0.2272,0.1882 -0.4899,0.3206 -0.788,0.3969 -0.339,0.0869 -0.6203,0.0959 -0.8439,0.027 -0.2236,-0.0688 -0.3894,-0.1939 -0.4974,-0.3751 -0.1043,-0.1822 -0.1695,-0.3822 -0.1956,-0.6002 -0.0261,-0.2219 -0.0392,-0.6699 -0.0392,-1.3439 v -5.2913 l 2.2579,-0.5784 v 5.3386 c 0,0.6109 0.0168,0.9693 0.0503,1.075 0.0373,0.1047 0.1341,0.1371 0.2906,0.097 0.1677,-0.043 0.2664,-0.1274 0.2962,-0.2533 0.0335,-0.1268 0.0503,-0.5114 0.0503,-1.1539 V 14.366 Z m -6.0416,-0.1786 v 9.5717 l -2.3529,0.6028 v -4.0203 l -0.7042,0.1804 v 4.0203 l -2.3529,0.6028 V 14.9948 L 67.502,14.392 v 3.4232 l 0.7042,-0.1804 v -3.4232 z m -6.5836,2.3664 v 1.2357 l 0.6092,-0.1561 v 1.2416 l -0.6092,0.156 v 4.1977 c 0,0.5163 0.0242,0.7978 0.0727,0.8445 0.0521,0.0457 0.2626,0.0214 0.6315,-0.0731 v 1.2652 l -0.911,0.2334 c -0.5142,0.1317 -0.8812,0.2041 -1.101,0.217 -0.2198,0.009 -0.4136,-0.0458 -0.5812,-0.1644 -0.1677,-0.1226 -0.272,-0.2831 -0.313,-0.4815 -0.0409,-0.2023 -0.0614,-0.6937 -0.0614,-1.4741 v -3.9848 l -0.4863,0.1246 v -1.2416 l 0.4863,-0.1245 v -1.2357 z m -3.1857,1.8626 v 7.8454 l -2.325,0.5956 v -7.8454 z m -3.1633,2.6076 -2.3529,0.6028 v -0.8691 c 0,-0.5479 -0.0224,-0.885 -0.067,-1.0115 -0.0448,-0.1265 -0.151,-0.1683 -0.3186,-0.1254 -0.1453,0.0372 -0.2441,0.1217 -0.2962,0.2533 -0.0522,0.1316 -0.0782,0.4418 -0.0782,0.9305 v 4.5937 c 0,0.4297 0.026,0.7068 0.0782,0.8314 0.0522,0.1206 0.1565,0.1609 0.313,0.1208 0.1713,-0.0439 0.2869,-0.1504 0.3465,-0.3193 0.0634,-0.17 0.0951,-0.4777 0.0951,-0.923 v -1.1352 l -0.4751,0.1217 v -1.4544 l 2.7553,-0.7058 v 5.1376 l -1.481,0.3795 -0.218,-0.63 c -0.1602,0.3366 -0.3633,0.6113 -0.6092,0.8241 -0.2422,0.2079 -0.5291,0.3543 -0.8607,0.4392 -0.3949,0.1012 -0.7656,0.0957 -1.1122,-0.0166 -0.3427,-0.1171 -0.6035,-0.3025 -0.7824,-0.5563 -0.1788,-0.2537 -0.2906,-0.5384 -0.3353,-0.8541 -0.0447,-0.3196 -0.0671,-0.8085 -0.0671,-1.4668 v -2.8437 c 0,-0.9144 0.0466,-1.5905 0.1398,-2.0282 0.0931,-0.4377 0.3595,-0.8843 0.7992,-1.3399 0.4433,-0.4604 1.0153,-0.7803 1.7157,-0.9598 0.6893,-0.1766 1.2613,-0.1731 1.7158,0.0103 0.4546,0.1831 0.7508,0.4639 0.8887,0.8425 0.1378,0.3746 0.2068,0.954 0.2068,1.7384 z m -7.8915,0.2243 -0.6483,5.8418 c -0.1006,0.9244 -0.1863,1.5593 -0.2571,1.9045 -0.0671,0.3443 -0.1807,0.6434 -0.3409,0.8973 -0.1602,0.2539 -0.3838,0.4669 -0.6707,0.6389 -0.2832,0.175 -0.7377,0.3427 -1.3637,0.503 l -1.3692,0.3508 v -1.2534 c 0.3502,-0.0897 0.5756,-0.1652 0.6762,-0.2264 0.1006,-0.0652 0.1509,-0.1628 0.1509,-0.2929 0,-0.063 -0.0466,-0.325 -0.1397,-0.786 l -1.2352,-6.246 2.0512,-0.5255 0.7377,5.1024 0.3577,-5.383 z m -5.6056,-0.2903 v 9.5718 l -2.0567,0.5269 v -6.462 l -0.8216,6.6724 -1.4587,0.3737 -0.8663,-6.0923 v 6.3142 l -2.0567,0.5269 v -9.5718 l 3.046,-0.7803 c 0.0894,0.5526 0.1844,1.2062 0.285,1.9608 l 0.3241,2.3528 0.5366,-4.6071 z m 16.6604,-4.268 v 1.2475 l -2.325,0.5956 v -1.2475 z"
         id="path3169" />
      <path
         inkscape:connector-curvature="0"
         style="font-style:normal;font-variant:normal;font-weight:normal;font-stretch:normal;font-size:10.5833px;line-height:1.25;font-family:Impact;-inkscape-font-specification:Impact;opacity:1;fill:#cb5100;fill-opacity:1;stroke:none;stroke-width:0.29431"
         d="m 79.3626,10.9546 -2.2579,0.5782 v 9.5718 l 2.1126,-0.541 0.1453,-0.6284 c 0.19,0.1957 0.3987,0.3257 0.6259,0.3896 0.231,0.0633 0.4788,0.0607 0.7434,-0.007 0.3688,-0.0945 0.6874,-0.2785 0.9557,-0.5522 0.2682,-0.2776 0.4377,-0.5652 0.5085,-0.8632 0.0745,-0.3029 0.1118,-0.7424 0.1118,-1.3178 v -3.5355 c 0,-0.5794 -0.013,-0.9544 -0.0392,-1.1251 -0.0224,-0.1716 -0.0931,-0.3348 -0.2123,-0.4895 -0.1193,-0.1547 -0.2925,-0.2543 -0.5198,-0.2986 -0.2273,-0.0443 -0.4956,-0.0267 -0.8048,0.0526 -0.2683,0.0688 -0.5179,0.1901 -0.7489,0.3636 -0.2273,0.1686 -0.4341,0.3906 -0.6204,0.6669 z m 0.427,2.8763 c 0.0887,9e-4 0.1514,0.0442 0.1878,0.1294 0.0485,0.1099 0.0727,0.3674 0.0727,0.7734 v 3.3054 c 0,0.4651 -0.0224,0.7645 -0.0671,0.8981 -0.041,0.1327 -0.1323,0.2167 -0.2739,0.253 -0.1378,0.0352 -0.231,0 -0.2794,-0.1058 -0.0447,-0.1067 -0.067,-0.3711 -0.067,-0.7928 v -3.3818 c 0,-0.4375 0.0206,-0.7143 0.0614,-0.8312 0.041,-0.1209 0.1304,-0.1994 0.2682,-0.2347 0.0354,-0.009 0.0677,-0.0133 0.0972,-0.013 z M 76.2832,13.47 v 7.8455 l -2.297,0.5884 0.0392,-0.6604 c -0.1565,0.3042 -0.3502,0.5529 -0.5813,0.7461 -0.2272,0.1882 -0.4899,0.3206 -0.788,0.3969 -0.339,0.0869 -0.6203,0.0959 -0.8439,0.027 C 71.5886,22.3447 71.4228,22.2196 71.3148,22.0384 71.2105,21.8562 71.1453,21.6562 71.1192,21.4382 71.0931,21.2163 71.08,20.7683 71.08,20.0943 V 14.803 l 2.2579,-0.5784 v 5.3386 c 0,0.6109 0.0168,0.9693 0.0503,1.075 0.0373,0.1047 0.1341,0.1371 0.2906,0.097 0.1677,-0.043 0.2664,-0.1274 0.2962,-0.2533 0.0335,-0.1268 0.0503,-0.5114 0.0503,-1.1539 v -5.2795 z m -6.0416,-0.1786 v 9.5717 l -2.3529,0.6028 v -4.0203 l -0.7042,0.1804 v 4.0203 l -2.3529,0.6028 v -9.5718 l 2.3529,-0.6028 v 3.4232 l 0.7042,-0.1804 v -3.4232 z m -6.5836,2.3664 v 1.2357 l 0.6092,-0.1561 v 1.2416 l -0.6092,0.156 v 4.1977 c 0,0.5163 0.0242,0.7978 0.0727,0.8445 0.0521,0.0457 0.2626,0.0214 0.6315,-0.0731 v 1.2652 l -0.911,0.2334 c -0.5142,0.1317 -0.8812,0.2041 -1.101,0.217 -0.2198,0.009 -0.4136,-0.0458 -0.5812,-0.1644 -0.1677,-0.1226 -0.272,-0.2831 -0.313,-0.4815 -0.0409,-0.2023 -0.0614,-0.6937 -0.0614,-1.4741 v -3.9848 l -0.4863,0.1246 v -1.2416 l 0.4863,-0.1245 v -1.2357 z m -3.1857,1.8626 v 7.8454 l -2.325,0.5956 V 18.116 Z m -3.1633,2.6076 -2.3529,0.6028 v -0.8691 c 0,-0.5479 -0.0224,-0.885 -0.067,-1.0115 -0.0448,-0.1265 -0.151,-0.1683 -0.3186,-0.1254 -0.1453,0.0372 -0.2441,0.1217 -0.2962,0.2533 -0.0522,0.1316 -0.0782,0.4418 -0.0782,0.9305 v 4.5937 c 0,0.4297 0.026,0.7068 0.0782,0.8314 0.0522,0.1206 0.1565,0.1609 0.313,0.1208 0.1713,-0.0439 0.2869,-0.1504 0.3465,-0.3193 0.0634,-0.17 0.0951,-0.4777 0.0951,-0.923 V 23.077 l -0.4751,0.1217 v -1.4544 l 2.7553,-0.7058 v 5.1376 l -1.481,0.3795 -0.218,-0.63 c -0.1602,0.3366 -0.3633,0.6113 -0.6092,0.8241 -0.2422,0.2079 -0.5291,0.3543 -0.8607,0.4392 -0.3949,0.1012 -0.7656,0.0957 -1.1122,-0.0166 -0.3427,-0.1171 -0.6035,-0.3025 -0.7824,-0.5563 -0.1788,-0.2537 -0.2906,-0.5384 -0.3353,-0.8541 -0.0447,-0.3196 -0.0671,-0.8085 -0.0671,-1.4668 v -2.8437 c 0,-0.9144 0.0466,-1.5905 0.1398,-2.0282 0.0931,-0.4377 0.3595,-0.8843 0.7992,-1.3399 0.4433,-0.4604 1.0153,-0.7803 1.7157,-0.9598 0.6893,-0.1766 1.2613,-0.1731 1.7158,0.0103 0.4546,0.1831 0.7508,0.4639 0.8887,0.8425 0.1378,0.3746 0.2068,0.954 0.2068,1.7384 z m -7.8915,0.2243 -0.6483,5.8418 c -0.1006,0.9244 -0.1863,1.5593 -0.2571,1.9045 -0.0671,0.3443 -0.1807,0.6434 -0.3409,0.8973 -0.1602,0.2539 -0.3838,0.4669 -0.6707,0.6389 -0.2832,0.175 -0.7377,0.3427 -1.3637,0.503 l -1.3692,0.3508 v -1.2534 c 0.3502,-0.0897 0.5756,-0.1652 0.6762,-0.2264 0.1006,-0.0652 0.1509,-0.1628 0.1509,-0.2929 0,-0.063 -0.0466,-0.325 -0.1397,-0.786 l -1.2352,-6.246 2.0512,-0.5255 0.7377,5.1024 0.3577,-5.383 z M 43.8119,20.062 v 9.5718 l -2.0567,0.5269 v -6.462 l -0.8216,6.6724 -1.4587,0.3737 -0.8663,-6.0923 v 6.3142 l -2.0567,0.5269 v -9.5718 l 3.046,-0.7803 c 0.0894,0.5526 0.1844,1.2062 0.285,1.9608 l 0.3241,2.3528 0.5366,-4.6071 z m 16.6604,-4.268 v 1.2475 l -2.325,0.5956 v -1.2475 z"
         id="path3171" />
      <path
         inkscape:connector-curvature="0"
         style="font-style:normal;font-variant:normal;font-weight:normal;font-stretch:normal;font-size:10.5833px;line-height:1.25;font-family:Impact;-inkscape-font-specification:Impact;opacity:1;fill:#d45500;fill-opacity:1;stroke:none;stroke-width:0.29431"
         d="m 79.0451,10.6371 -2.2579,0.5782 v 9.5718 l 2.1126,-0.541 0.1453,-0.6284 c 0.19,0.1957 0.3987,0.3257 0.6259,0.3896 0.231,0.0633 0.4788,0.0607 0.7434,-0.007 0.3688,-0.0945 0.6874,-0.2785 0.9557,-0.5522 0.2682,-0.2776 0.4377,-0.5652 0.5085,-0.8632 0.0745,-0.3029 0.1118,-0.7424 0.1118,-1.3178 v -3.5355 c 0,-0.5794 -0.013,-0.9544 -0.0392,-1.1251 -0.0224,-0.1716 -0.0931,-0.3348 -0.2123,-0.4895 -0.1193,-0.1547 -0.2925,-0.2543 -0.5198,-0.2986 -0.2273,-0.0443 -0.4956,-0.0267 -0.8048,0.0526 -0.2683,0.0688 -0.5179,0.1901 -0.7489,0.3636 -0.2273,0.1686 -0.4341,0.3906 -0.6204,0.6669 z m 0.427,2.8763 c 0.0887,9e-4 0.1514,0.0442 0.1878,0.1294 0.0485,0.1099 0.0727,0.3674 0.0727,0.7734 v 3.3054 c 0,0.4651 -0.0224,0.7645 -0.0671,0.8981 -0.041,0.1327 -0.1323,0.2167 -0.2739,0.253 -0.1378,0.0352 -0.231,0 -0.2794,-0.1058 -0.0447,-0.1067 -0.067,-0.3711 -0.067,-0.7928 v -3.3818 c 0,-0.4375 0.0206,-0.7143 0.0614,-0.8312 0.041,-0.1209 0.1304,-0.1994 0.2682,-0.2347 0.0354,-0.009 0.0677,-0.0133 0.0972,-0.013 z m -3.5064,-0.3609 v 7.8455 l -2.297,0.5884 0.0392,-0.6604 c -0.1565,0.3042 -0.3502,0.5529 -0.5813,0.7461 -0.2272,0.1882 -0.4899,0.3206 -0.788,0.3969 -0.339,0.0869 -0.6203,0.0959 -0.8439,0.027 -0.2236,-0.0688 -0.3894,-0.1939 -0.4974,-0.3751 -0.1043,-0.1822 -0.1695,-0.3822 -0.1956,-0.6002 -0.0261,-0.2219 -0.0392,-0.6699 -0.0392,-1.3439 v -5.2913 l 2.2579,-0.5784 v 5.3386 c 0,0.6109 0.0168,0.9693 0.0503,1.075 0.0373,0.1047 0.1341,0.1371 0.2906,0.097 0.1677,-0.043 0.2664,-0.1274 0.2962,-0.2533 0.0335,-0.1268 0.0503,-0.5114 0.0503,-1.1539 V 13.731 Z m -6.0416,-0.1786 v 9.5717 l -2.3529,0.6028 v -4.0203 l -0.7042,0.1804 v 4.0203 l -2.3529,0.6028 V 14.3598 L 66.867,13.757 v 3.4232 l 0.7042,-0.1804 v -3.4232 z m -6.5836,2.3664 v 1.2357 l 0.6092,-0.1561 v 1.2416 l -0.6092,0.156 v 4.1977 c 0,0.5163 0.0242,0.7978 0.0727,0.8445 0.0521,0.0457 0.2626,0.0214 0.6315,-0.0731 v 1.2652 l -0.911,0.2334 c -0.5142,0.1317 -0.8812,0.2041 -1.101,0.217 -0.2198,0.009 -0.4136,-0.0458 -0.5812,-0.1644 -0.1677,-0.1226 -0.272,-0.2831 -0.313,-0.4815 -0.0409,-0.2023 -0.0614,-0.6937 -0.0614,-1.4741 v -3.9848 l -0.4863,0.1246 v -1.2416 l 0.4863,-0.1245 v -1.2357 z m -3.1857,1.8626 v 7.8454 l -2.325,0.5956 v -7.8454 z m -3.1633,2.6076 -2.3529,0.6028 v -0.8691 c 0,-0.5479 -0.0224,-0.885 -0.067,-1.0115 -0.0448,-0.1265 -0.151,-0.1683 -0.3186,-0.1254 -0.1453,0.0372 -0.2441,0.1217 -0.2962,0.2533 -0.0522,0.1316 -0.0782,0.4418 -0.0782,0.9305 v 4.5937 c 0,0.4297 0.026,0.7068 0.0782,0.8314 0.0522,0.1206 0.1565,0.1609 0.313,0.1208 0.1713,-0.0439 0.2869,-0.1504 0.3465,-0.3193 0.0634,-0.17 0.0951,-0.4777 0.0951,-0.923 v -1.1352 l -0.4751,0.1217 v -1.4544 l 2.7553,-0.7058 v 5.1376 l -1.481,0.3795 -0.218,-0.63 c -0.1602,0.3366 -0.3633,0.6113 -0.6092,0.8241 -0.2422,0.2079 -0.5291,0.3543 -0.8607,0.4392 -0.3949,0.1012 -0.7656,0.0957 -1.1122,-0.0166 -0.3427,-0.1171 -0.6035,-0.3025 -0.7824,-0.5563 -0.1788,-0.2537 -0.2906,-0.5384 -0.3353,-0.8541 -0.0447,-0.3196 -0.0671,-0.8085 -0.0671,-1.4668 v -2.8437 c 0,-0.9144 0.0466,-1.5905 0.1398,-2.0282 0.0931,-0.4377 0.3595,-0.8843 0.7992,-1.3399 0.4433,-0.4604 1.0153,-0.7803 1.7157,-0.9598 0.6893,-0.1766 1.2613,-0.1731 1.7158,0.0103 0.4546,0.1831 0.7508,0.4639 0.8887,0.8425 0.1378,0.3746 0.2068,0.954 0.2068,1.7384 z M 49.1,20.0348 48.4517,25.8766 c -0.1006,0.9244 -0.1863,1.5593 -0.2571,1.9045 -0.0671,0.3443 -0.1807,0.6434 -0.3409,0.8973 -0.1602,0.2539 -0.3838,0.4669 -0.6707,0.6389 -0.2832,0.175 -0.7377,0.3427 -1.3637,0.503 l -1.3692,0.3508 v -1.2534 c 0.3502,-0.0897 0.5756,-0.1652 0.6762,-0.2264 0.1006,-0.0652 0.1509,-0.1628 0.1509,-0.2929 0,-0.063 -0.0466,-0.325 -0.1397,-0.786 l -1.2352,-6.246 2.0512,-0.5255 0.7377,5.1024 0.3577,-5.383 z m -5.6056,-0.2903 v 9.5718 l -2.0567,0.5269 v -6.462 l -0.8216,6.6724 -1.4587,0.3737 -0.8663,-6.0923 v 6.3142 l -2.0567,0.5269 v -9.5718 l 3.046,-0.7803 c 0.0894,0.5526 0.1844,1.2062 0.285,1.9608 l 0.3241,2.3528 0.5366,-4.6071 z m 16.6604,-4.268 v 1.2475 l -2.325,0.5956 v -1.2475 z"
         id="path3173" />
    </g>
    <g
       transform="matrix(2.5706481,0,0,2.7600205,-5.3259878,-9.7711507)"
       id="g3120">
      <path
         inkscape:connector-curvature="0"
         style="font-style:normal;font-variant:normal;font-weight:normal;font-stretch:normal;font-size:10.5833px;line-height:1.25;font-family:Impact;-inkscape-font-specification:Impact;opacity:1;fill:#aa4400;fill-opacity:1;stroke:none;stroke-width:0.264583"
         d="M 53.784,5.33774 C 53.5082,5.32507 53.1944,5.36116 52.843,5.44626 52.2849,5.58142 51.8267,5.80081 51.4684,6.10462 51.1101,6.40843 50.8621,6.75631 50.7243,7.14797 50.5865,7.53963 50.5176,8.0542 50.5176,8.69154 v 1.75696 c 0,0.5823 0.0379,1.0102 0.1137,1.2847 0.0758,0.2711 0.2015,0.489 0.3772,0.6532 0.1791,0.1599 0.4289,0.2528 0.7493,0.2785 0.3204,0.0224 0.7114,-0.0225 1.1731,-0.1343 0.4134,-0.1001 0.7786,-0.2474 1.0955,-0.4413 0.3204,-0.1982 0.5822,-0.4459 0.7855,-0.7431 0.2033,-0.3008 0.3359,-0.6014 0.3979,-0.9023 0.062,-0.3044 0.093,-0.76517 0.093,-1.38184 V 7.38258 c 0,-0.48576 -0.0344,-0.83887 -0.1033,-1.05989 C 55.134,6.10083 55.01,5.89987 54.8274,5.72015 54.6448,5.54046 54.3847,5.42274 54.0471,5.36668 53.9635,5.3516 53.876,5.34197 53.784,5.33774 Z M 53.0006,6.6312 c 0.0769,-0.00106 0.1292,0.02961 0.1576,0.0925 0.0379,0.0804 0.0569,0.29663 0.0569,0.64802 v 3.16258 c 0,0.2963 -0.0207,0.4942 -0.062,0.5938 -0.0379,0.0987 -0.1189,0.1632 -0.2429,0.1933 -0.1206,0.0291 -0.2015,10e-5 -0.2429,-0.0863 -0.0413,-0.0899 -0.062,-0.2968 -0.062,-0.6207 V 7.519 c 0,-0.3514 0.0207,-0.57686 0.062,-0.67644 C 52.7087,6.7395 52.7914,6.67309 52.9154,6.64309 52.9464,6.63558 52.975,6.6316 53.0006,6.63121 Z M 49.5565,5.45154 v 1.08004 l 0.5633,-0.1364 v 1.0852 l -0.5633,0.1364 v 3.66902 c 0,0.4513 0.0224,0.6974 0.0672,0.7382 0.0483,0.04 0.2429,0.0187 0.584,-0.0639 v 1.1059 l -0.8424,0.2039 c -0.4754,0.1152 -0.8147,0.1784 -1.018,0.1898 -0.2032,0.0078 -0.3824,-0.0401 -0.5374,-0.1438 -0.155,-0.1071 -0.2515,-0.2474 -0.2894,-0.4208 -0.0379,-0.1769 -0.0568,-0.6064 -0.0568,-1.2885 V 8.12364 L 47.0141,8.23251 V 7.14731 L 47.4637,7.03844 V 5.9584 Z M 43.1279,7.8828 C 42.8867,7.88518 42.6197,7.92196 42.3269,7.99288 41.848,8.10883 41.4242,8.30461 41.0556,8.57992 40.687,8.85178 40.4217,9.18132 40.2598,9.56849 40.0979,9.9522 40.0169,10.4439 40.0169,11.0433 v 1.9999 c 0,0.5099 0.0362,0.8904 0.1085,1.1415 0.0724,0.2478 0.2016,0.4609 0.3876,0.6398 0.1895,0.1746 0.4531,0.285 0.7907,0.3307 0.3376,0.0458 0.7269,0.0148 1.1679,-0.092 0.4547,-0.1101 0.8319,-0.265 1.1317,-0.465 0.3031,-0.2044 0.5529,-0.4594 0.7493,-0.7654 0.1964,-0.3059 0.3204,-0.5792 0.3721,-0.819 0.0551,-0.2408 0.0826,-0.5726 0.0826,-0.9964 V 11.511 l -1.9792,0.479 v 0.9044 c 0,0.3411 -0.0275,0.5787 -0.0827,0.7126 -0.0516,0.1296 -0.1567,0.2138 -0.3152,0.2522 -0.1274,0.0308 -0.2136,0.0069 -0.2584,-0.0718 -0.0448,-0.0788 -0.0671,-0.2734 -0.0671,-0.5835 v -1.4831 l 2.7026,-0.6542 v -0.9095 c 0,-0.66492 -0.0775,-1.16117 -0.2325,-1.48881 C 44.4232,8.33637 44.1562,8.10629 43.7738,7.97841 43.5843,7.91232 43.369,7.88039 43.1279,7.8828 Z m -0.6222,1.29088 c 0.073,0.00159 0.1235,0.03788 0.1519,0.10852 0.0379,0.09418 0.0568,0.3185 0.0568,0.67335 v 0.50125 l -0.6097,0.1478 v -0.5013 c 0,-0.38581 0.0172,-0.62586 0.0516,-0.72033 0.0345,-0.09789 0.1241,-0.1644 0.2688,-0.19947 0.0292,-0.00709 0.0562,-0.01037 0.0806,-0.00982 z m -8.5296,0.96562 -0.0362,0.6599 c 0.1619,-0.2976 0.3549,-0.5373 0.5788,-0.719 0.2239,-0.18512 0.4789,-0.31232 0.7648,-0.38157 0.5581,-0.13515 0.9974,0.01686 1.3178,0.45607 0.1757,-0.30096 0.3738,-0.54186 0.5942,-0.72272 0.2205,-0.18431 0.4651,-0.309 0.7338,-0.37407 0.3549,-0.08593 0.6477,-0.07073 0.8785,0.04559 0.2343,0.11552 0.3842,0.29111 0.4496,0.52675 0.0655,0.2322 0.0982,0.62905 0.0982,1.19065 v 4.873 l -2.0257,0.4906 v -4.47 c 0,-0.5857 -0.0207,-0.9424 -0.062,-1.0702 -0.0379,-0.1321 -0.1292,-0.1806 -0.2739,-0.1455 -0.1481,0.0358 -0.2446,0.1281 -0.2894,0.2768 -0.0413,0.1478 -0.062,0.5162 -0.062,1.1053 v 4.47 l -2.0257,0.4906 v -4.3563 c 0,-0.6718 -0.0172,-1.0707 -0.0517,-1.1967 -0.031,-0.1269 -0.1205,-0.1724 -0.2687,-0.1365 -0.093,0.0225 -0.1722,0.0779 -0.2377,0.1661 -0.0655,0.0848 -0.1016,0.1796 -0.1085,0.2847 -0.0069,0.1015 -0.0103,0.3177 -0.0103,0.6484 v 4.7542 l -2.0257,0.4906 v -6.8575 z m -4.2733,1.0301 c -0.2758,-0.0126 -0.5896,0.0234 -0.941,0.1085 -0.5581,0.1352 -1.0163,0.3546 -1.3746,0.6584 -0.3583,0.3038 -0.6063,0.6517 -0.7441,1.0434 -0.1378,0.3916 -0.2067,0.9062 -0.2067,1.5435 v 1.757 c 0,0.5822 0.0379,1.0102 0.1137,1.2847 0.0757,0.271 0.2015,0.489 0.3772,0.6532 0.1791,0.1598 0.4289,0.2522 0.7493,0.278 0.3204,0.0223 0.7114,-0.022 1.1731,-0.1338 0.4134,-0.1001 0.7785,-0.2475 1.0955,-0.4413 0.3204,-0.1982 0.5822,-0.4459 0.7855,-0.7432 0.2032,-0.3007 0.3359,-0.6013 0.3979,-0.9022 0.062,-0.3044 0.093,-0.7652 0.093,-1.3819 v -1.6794 c 0,-0.4858 -0.0344,-0.8389 -0.1034,-1.0599 -0.0654,-0.2219 -0.1894,-0.4229 -0.372,-0.6026 -0.1826,-0.1797 -0.4427,-0.2974 -0.7803,-0.3534 -0.0836,-0.0151 -0.1711,-0.0247 -0.2631,-0.029 z m -0.7834,1.2935 c 0.0769,-0.0011 0.1292,0.0296 0.1576,0.0925 0.0379,0.0804 0.0569,0.2966 0.0569,0.648 v 3.1626 c 0,0.2963 -0.0207,0.4942 -0.062,0.5938 -0.0379,0.0987 -0.1189,0.1627 -0.2429,0.1927 -0.1206,0.0292 -0.2016,8e-4 -0.2429,-0.0858 -0.0413,-0.0898 -0.062,-0.2967 -0.062,-0.6206 v -3.0954 c 0,-0.3514 0.0207,-0.5769 0.062,-0.6765 0.0413,-0.103 0.124,-0.1694 0.248,-0.1994 0.031,-0.0075 0.0597,-0.0115 0.0853,-0.0119 z m -3.0358,2.2251 -1.9688,0.4768 v -0.7907 c 0,-0.2756 -0.0224,-0.4562 -0.0672,-0.5418 -0.0448,-0.0891 -0.1275,-0.119 -0.2481,-0.0898 -0.1206,0.0292 -0.2015,0.0919 -0.2429,0.188 -0.0413,0.0961 -0.062,0.2941 -0.062,0.5938 v 3.2349 c 0,0.2446 0.031,0.4214 0.093,0.5305 0.062,0.1055 0.1533,0.1437 0.2739,0.1145 0.1413,-0.0342 0.236,-0.1209 0.2842,-0.26 0.0517,-0.14 0.0775,-0.3874 0.0775,-0.7423 v -0.8165 l 1.8604,-0.4505 c -0.0034,0.5486 -0.024,0.9653 -0.062,1.2501 -0.0345,0.2805 -0.1499,0.5892 -0.3463,0.9262 -0.1929,0.3326 -0.4461,0.611 -0.7596,0.8351 -0.3135,0.2206 -0.7011,0.3868 -1.1627,0.4986 -0.5891,0.1426 -1.0559,0.1558 -1.4004,0.0394 -0.3445,-0.1199 -0.5891,-0.3431 -0.7338,-0.6698 -0.1413,-0.331 -0.2119,-0.8307 -0.2119,-1.499 v -1.9482 c 0,-0.5822 0.0586,-1.0356 0.1757,-1.3603 0.1171,-0.3246 0.3669,-0.6487 0.7493,-0.9721 0.3824,-0.3269 0.8475,-0.5566 1.3953,-0.6893 0.5443,-0.1318 1.0094,-0.1291 1.3952,0.008 0.3859,0.1374 0.6425,0.3664 0.77,0.6869 0.1275,0.3205 0.1912,0.8029 0.1912,1.4471 z m -5.3588,-2.8002 v 8.3664 l -2.1497,0.5206 v -8.3664 z m -4.5162,2.5626 c -0.2412,0.0024 -0.5082,0.0391 -0.801,0.11 -0.4789,0.116 -0.9026,0.3118 -1.2712,0.5871 -0.3687,0.2718 -0.6339,0.6014 -0.7959,0.9885 -0.1619,0.3838 -0.2428,0.8749 -0.2428,1.4744 v 1.9999 c 0,0.5098 0.0361,0.8908 0.1085,1.142 0.0723,0.2478 0.2015,0.4609 0.3875,0.6398 0.1895,0.1745 0.4531,0.2844 0.7907,0.3302 0.3376,0.0457 0.7264,0.0153 1.1674,-0.0915 0.4547,-0.1101 0.832,-0.265 1.1317,-0.4651 0.3032,-0.2043 0.5529,-0.4594 0.7493,-0.7653 0.1964,-0.3059 0.3204,-0.5792 0.3721,-0.8191 0.0551,-0.2407 0.0832,-0.5726 0.0832,-0.9963 v -0.5064 l -1.9792,0.479 v 0.9043 c 0,0.3411 -0.0276,0.5787 -0.0827,0.7127 -0.0517,0.1296 -0.1573,0.2137 -0.3158,0.2521 -0.1274,0.0309 -0.213,0.0069 -0.2578,-0.0718 -0.0448,-0.0787 -0.0677,-0.2734 -0.0677,-0.5834 v -1.4831 l 2.7026,-0.6543 v -0.9095 c 0,-0.6649 -0.077,-1.1611 -0.232,-1.4888 -0.1516,-0.3319 -0.4186,-0.562 -0.801,-0.6898 -0.1894,-0.0661 -0.4048,-0.0981 -0.6459,-0.0956 z m -0.6227,1.2908 c 0.073,0.0016 0.124,0.0379 0.1524,0.1086 0.0379,0.0941 0.0564,0.3185 0.0564,0.6733 v 0.5013 l -0.6093,0.1478 v -0.5013 c 0,-0.3859 0.0172,-0.6259 0.0517,-0.7204 0.0344,-0.0979 0.124,-0.1644 0.2687,-0.1994 0.0293,-0.0071 0.0557,-0.0104 0.0801,-0.0098 z M 12.5873,13.81 11.621,22.4104 8.90281,23.0686 C 8.65477,21.8437 8.436,20.436 8.24653,18.8454 8.1604,19.5656 7.95886,21.0752 7.64191,23.374 l -2.70267,0.6545 -0.97152,-8.1311 2.11356,-0.5119 0.22221,2.8659 0.22737,2.7613 c 0.07925,-1.4764 0.27906,-3.4368 0.59946,-5.8812 l 2.26342,-0.5481 c 0.031,0.2371 0.11023,1.1377 0.23771,2.7019 l 0.2377,3.1205 c 0.12058,-2.0514 0.32215,-4.0794 0.60465,-6.084 z"
         id="path3108" />
      <path
         inkscape:connector-curvature="0"
         style="font-style:normal;font-variant:normal;font-weight:normal;font-stretch:normal;font-size:10.5833px;line-height:1.25;font-family:Impact;-inkscape-font-specification:Impact;opacity:1;fill:#b24700;fill-opacity:1;stroke:none;stroke-width:0.264583"
         d="M 53.4665,5.02024 C 53.1907,5.00757 52.8769,5.04366 52.5255,5.12876 51.9674,5.26392 51.5092,5.48331 51.1509,5.78712 50.7926,6.09093 50.5446,6.43881 50.4068,6.83047 50.269,7.22213 50.2001,7.7367 50.2001,8.37404 V 10.131 c 0,0.5823 0.0379,1.0102 0.1137,1.2847 0.0758,0.2711 0.2015,0.489 0.3772,0.6532 0.1791,0.1599 0.4289,0.2528 0.7493,0.2785 0.3204,0.0224 0.7114,-0.0225 1.1731,-0.1343 0.4134,-0.1001 0.7786,-0.2474 1.0955,-0.4413 0.3204,-0.1982 0.5822,-0.4459 0.7855,-0.7431 0.2033,-0.3008 0.3359,-0.6014 0.3979,-0.9023 0.062,-0.30441 0.093,-0.76517 0.093,-1.38184 V 7.06508 C 54.9853,6.57932 54.9509,6.22621 54.882,6.00519 54.8165,5.78333 54.6925,5.58237 54.5099,5.40265 54.3273,5.22296 54.0672,5.10524 53.7296,5.04918 53.646,5.0341 53.5585,5.02447 53.4665,5.02024 Z M 52.6831,6.3137 c 0.0769,-0.00106 0.1292,0.02961 0.1576,0.0925 0.0379,0.0804 0.0569,0.29663 0.0569,0.64802 v 3.16258 c 0,0.2963 -0.0207,0.4942 -0.062,0.5938 -0.0379,0.0987 -0.1189,0.1632 -0.2429,0.1933 -0.1206,0.0291 -0.2015,10e-5 -0.2429,-0.0863 -0.0413,-0.0899 -0.062,-0.2968 -0.062,-0.6207 V 7.2015 c 0,-0.3514 0.0207,-0.57686 0.062,-0.67644 C 52.3912,6.422 52.4739,6.35559 52.5979,6.32559 52.6289,6.31808 52.6575,6.3141 52.6831,6.31371 Z M 49.239,5.13404 v 1.08004 l 0.5633,-0.1364 v 1.0852 l -0.5633,0.1364 v 3.66902 c 0,0.4513 0.0224,0.6974 0.0672,0.7382 0.0483,0.04 0.2429,0.0187 0.584,-0.0639 v 1.1059 l -0.8424,0.2039 c -0.4754,0.1152 -0.8147,0.1784 -1.018,0.1898 C 47.8266,13.15 47.6474,13.1021 47.4924,12.9984 47.3374,12.8913 47.2409,12.751 47.203,12.5776 47.1651,12.4007 47.1462,11.9712 47.1462,11.2891 V 7.80614 L 46.6966,7.91501 V 6.82981 L 47.1462,6.72094 V 5.6409 Z M 42.8104,7.5653 c -0.2412,0.00238 -0.5082,0.03916 -0.801,0.11008 -0.4789,0.11595 -0.9027,0.31173 -1.2713,0.58704 -0.3686,0.27186 -0.6339,0.6014 -0.7958,0.98857 -0.1619,0.38371 -0.2429,0.87541 -0.2429,1.47481 v 1.9999 c 0,0.5099 0.0362,0.8904 0.1085,1.1415 0.0724,0.2478 0.2016,0.4609 0.3876,0.6398 0.1895,0.1746 0.4531,0.285 0.7907,0.3307 0.3376,0.0458 0.7269,0.0148 1.1679,-0.092 0.4547,-0.1101 0.8319,-0.265 1.1317,-0.465 0.3031,-0.2044 0.5529,-0.4594 0.7493,-0.7654 0.1964,-0.3059 0.3204,-0.5792 0.3721,-0.819 0.0551,-0.2408 0.0826,-0.5726 0.0826,-0.9964 v -0.5064 l -1.9792,0.479 v 0.9044 c 0,0.3411 -0.0275,0.5787 -0.0827,0.7126 -0.0516,0.1296 -0.1567,0.2138 -0.3152,0.2522 -0.1274,0.0308 -0.2136,0.0069 -0.2584,-0.0718 -0.0448,-0.0788 -0.0671,-0.2734 -0.0671,-0.5835 v -1.4831 l 2.7026,-0.6542 V 9.83958 c 0,-0.6649 -0.0775,-1.16115 -0.2325,-1.48879 C 44.1057,8.01887 43.8387,7.78879 43.4563,7.66091 43.2668,7.59482 43.0515,7.56289 42.8104,7.5653 Z m -0.6222,1.29088 c 0.073,0.00159 0.1235,0.03788 0.1519,0.10852 0.0379,0.09418 0.0568,0.3185 0.0568,0.67335 v 0.50125 l -0.6097,0.1478 V 9.78584 c 0,-0.38585 0.0172,-0.6259 0.0516,-0.72037 0.0345,-0.09789 0.1241,-0.1644 0.2688,-0.19947 0.0292,-0.00709 0.0562,-0.01037 0.0806,-0.00982 z m -8.5296,0.96558 -0.0362,0.65994 c 0.1619,-0.2976 0.3549,-0.53728 0.5788,-0.71898 0.2239,-0.18514 0.4789,-0.31234 0.7648,-0.38159 0.5581,-0.13515 0.9974,0.01686 1.3178,0.45603 0.1757,-0.30092 0.3738,-0.54182 0.5942,-0.72268 0.2205,-0.18431 0.4651,-0.309 0.7338,-0.37407 0.3549,-0.08593 0.6477,-0.07073 0.8785,0.04559 0.2343,0.11552 0.3842,0.29111 0.4496,0.52675 0.0655,0.2322 0.0982,0.62907 0.0982,1.19065 v 4.873 l -2.0257,0.4906 v -4.47 c 0,-0.5857 -0.0207,-0.9424 -0.062,-1.0702 -0.0379,-0.1321 -0.1292,-0.1806 -0.2739,-0.1455 -0.1481,0.0358 -0.2446,0.1281 -0.2894,0.2768 -0.0413,0.1478 -0.062,0.5162 -0.062,1.1053 v 4.47 l -2.0257,0.4906 v -4.3563 c 0,-0.6718 -0.0172,-1.0707 -0.0517,-1.1967 -0.031,-0.1269 -0.1205,-0.1724 -0.2687,-0.1365 -0.093,0.0225 -0.1722,0.0779 -0.2377,0.1661 -0.0655,0.0848 -0.1016,0.1796 -0.1085,0.2847 -0.0069,0.1015 -0.0103,0.3177 -0.0103,0.6484 v 4.7542 l -2.0257,0.4906 V 10.321 Z m -4.2733,1.03014 c -0.2758,-0.0126 -0.5896,0.0234 -0.941,0.1085 -0.5581,0.1352 -1.0163,0.3546 -1.3746,0.6584 -0.3583,0.3038 -0.6063,0.6517 -0.7441,1.0434 -0.1378,0.3916 -0.2067,0.9062 -0.2067,1.5435 v 1.757 c 0,0.5822 0.0379,1.0102 0.1137,1.2847 0.0757,0.271 0.2015,0.489 0.3772,0.6532 0.1791,0.1598 0.4289,0.2522 0.7493,0.278 0.3204,0.0223 0.7114,-0.022 1.1731,-0.1338 0.4134,-0.1001 0.7785,-0.2475 1.0955,-0.4413 0.3204,-0.1982 0.5822,-0.4459 0.7855,-0.7432 0.2032,-0.3007 0.3359,-0.6013 0.3979,-0.9022 0.062,-0.3044 0.093,-0.7652 0.093,-1.3819 v -1.6794 c 0,-0.4858 -0.0344,-0.8389 -0.1034,-1.0599 -0.0654,-0.2219 -0.1894,-0.4229 -0.372,-0.6026 -0.1826,-0.1797 -0.4427,-0.2974 -0.7803,-0.3534 -0.0836,-0.0151 -0.1711,-0.0247 -0.2631,-0.029 z m -0.7834,1.2935 c 0.0769,-0.0011 0.1292,0.0296 0.1576,0.0925 0.0379,0.0804 0.0569,0.2966 0.0569,0.648 v 3.1626 c 0,0.2963 -0.0207,0.4942 -0.062,0.5938 -0.0379,0.0987 -0.1189,0.1627 -0.2429,0.1927 -0.1206,0.0292 -0.2016,8e-4 -0.2429,-0.0858 -0.0413,-0.0898 -0.062,-0.2968 -0.062,-0.6206 v -3.0954 c 0,-0.3514 0.0207,-0.5769 0.062,-0.6765 0.0413,-0.103 0.124,-0.1694 0.248,-0.1994 0.031,-0.0075 0.0597,-0.0115 0.0853,-0.0119 z m -3.0358,2.2251 -1.9688,0.4768 v -0.7907 c 0,-0.2756 -0.0224,-0.4562 -0.0672,-0.5418 -0.0448,-0.0891 -0.1275,-0.119 -0.2481,-0.0898 -0.1206,0.0292 -0.2015,0.0919 -0.2429,0.188 -0.0413,0.0961 -0.062,0.2941 -0.062,0.5938 v 3.2349 c 0,0.2446 0.031,0.4214 0.093,0.5305 0.062,0.1055 0.1533,0.1437 0.2739,0.1145 0.1413,-0.0342 0.236,-0.1209 0.2842,-0.26 0.0517,-0.14 0.0775,-0.3874 0.0775,-0.7423 v -0.8165 l 1.8604,-0.4505 c -0.0034,0.5486 -0.024,0.9653 -0.062,1.2501 -0.0345,0.2805 -0.1499,0.5892 -0.3463,0.9262 -0.1929,0.3326 -0.4461,0.611 -0.7596,0.8351 -0.3135,0.2206 -0.7011,0.3868 -1.1627,0.4986 -0.5891,0.1426 -1.0559,0.1558 -1.4004,0.0394 C 21.4906,19.2469 21.246,19.0237 21.1013,18.697 20.96,18.366 20.8894,17.8663 20.8894,17.198 v -1.9482 c 0,-0.5822 0.0586,-1.0356 0.1757,-1.3603 0.1171,-0.3246 0.3669,-0.6487 0.7493,-0.9721 0.3824,-0.3269 0.8475,-0.5566 1.3953,-0.6893 0.5443,-0.1318 1.0094,-0.1291 1.3952,0.008 0.3859,0.1374 0.6425,0.3664 0.77,0.6869 0.1275,0.3205 0.1912,0.8029 0.1912,1.4471 z m -5.3588,-2.8002 v 8.3664 l -2.1497,0.5206 v -8.3664 z m -4.5162,2.5626 c -0.2412,0.0024 -0.5082,0.0391 -0.801,0.11 -0.4789,0.116 -0.9026,0.3118 -1.2712,0.5871 -0.3687,0.2718 -0.6339,0.6014 -0.7959,0.9885 -0.1619,0.3838 -0.2428,0.8749 -0.2428,1.4744 v 1.9999 c 0,0.5098 0.0361,0.8908 0.1085,1.142 0.0723,0.2478 0.2015,0.4609 0.3875,0.6398 0.1895,0.1745 0.4531,0.2844 0.7907,0.3302 0.3376,0.0457 0.7264,0.0153 1.1674,-0.0915 0.4547,-0.1101 0.832,-0.265 1.1317,-0.4651 0.3032,-0.2043 0.5529,-0.4594 0.7493,-0.7653 0.1964,-0.3059 0.3204,-0.5792 0.3721,-0.8191 0.0551,-0.2407 0.0832,-0.5726 0.0832,-0.9963 v -0.5064 l -1.9792,0.479 v 0.9043 c 0,0.3411 -0.0276,0.5787 -0.0827,0.7127 -0.0517,0.1296 -0.1573,0.2137 -0.3158,0.2521 -0.1274,0.0309 -0.213,0.0069 -0.2578,-0.0718 C 14.6903,19.9587 14.6674,19.764 14.6674,19.454 V 17.9709 L 17.37,17.3166 v -0.9095 c 0,-0.6649 -0.077,-1.1611 -0.232,-1.4888 -0.1516,-0.3319 -0.4186,-0.562 -0.801,-0.6898 -0.1895,-0.0661 -0.4048,-0.0981 -0.6459,-0.0956 z m -0.6227,1.2908 c 0.073,0.0016 0.124,0.0379 0.1524,0.1086 0.0379,0.0941 0.0564,0.3185 0.0564,0.6733 v 0.5013 l -0.6093,0.1478 v -0.5013 c 0,-0.3859 0.0172,-0.6259 0.0517,-0.7204 0.0344,-0.0979 0.124,-0.1644 0.2687,-0.1994 0.0293,-0.0071 0.0557,-0.0104 0.0801,-0.0098 z m -2.7986,-1.9312 -0.9663,8.6004 -2.71819,0.6582 C 8.33727,21.5262 8.1185,20.1185 7.92903,18.5279 7.8429,19.2481 7.64136,20.7577 7.32441,23.0565 L 4.62174,23.711 3.65022,15.5799 5.76378,15.068 5.98599,17.9339 6.21336,20.6952 C 6.29261,19.2188 6.49242,17.2584 6.81282,14.814 l 2.26342,-0.5481 c 0.031,0.2371 0.11023,1.1377 0.23771,2.7019 l 0.2377,3.1205 c 0.12058,-2.0514 0.32212,-4.0794 0.60465,-6.084 z"
         id="path3110" />
      <path
         inkscape:connector-curvature="0"
         style="font-style:normal;font-variant:normal;font-weight:normal;font-stretch:normal;font-size:10.5833px;line-height:1.25;font-family:Impact;-inkscape-font-specification:Impact;opacity:1;fill:#ba4a00;fill-opacity:1;stroke:none;stroke-width:0.264583"
         d="M 53.149,4.70274 C 52.8732,4.69007 52.5594,4.72616 52.208,4.81126 51.6499,4.94642 51.1917,5.16581 50.8334,5.46962 50.4751,5.77343 50.2271,6.12131 50.0893,6.51297 49.9515,6.90463 49.8826,7.4192 49.8826,8.05654 v 1.757 c 0,0.58226 0.0379,1.01016 0.1137,1.28466 0.0758,0.2711 0.2015,0.489 0.3772,0.6532 0.1791,0.1599 0.4289,0.2528 0.7493,0.2785 0.3204,0.0224 0.7114,-0.0225 1.1731,-0.1343 0.4134,-0.1001 0.7786,-0.2474 1.0955,-0.4413 0.3204,-0.1982 0.5822,-0.4459 0.7855,-0.7431 0.2033,-0.3008 0.3359,-0.6014 0.3979,-0.90231 0.062,-0.3044 0.093,-0.76516 0.093,-1.38183 V 6.74758 c 0,-0.48576 -0.0344,-0.83887 -0.1033,-1.05989 C 54.499,5.46583 54.375,5.26487 54.1924,5.08515 54.0098,4.90546 53.7497,4.78774 53.4121,4.73168 53.3285,4.7166 53.241,4.70697 53.149,4.70274 Z M 52.3656,5.9962 c 0.0769,-0.00106 0.1292,0.02961 0.1576,0.0925 0.0379,0.0804 0.0569,0.29663 0.0569,0.64802 v 3.1626 c 0,0.29628 -0.0207,0.49418 -0.062,0.59378 -0.0379,0.0987 -0.1189,0.1632 -0.2429,0.1933 -0.1206,0.0291 -0.2015,10e-5 -0.2429,-0.0863 -0.0413,-0.0899 -0.062,-0.2968 -0.062,-0.62068 V 6.884 c 0,-0.3514 0.0207,-0.57686 0.062,-0.67644 C 52.0737,6.1045 52.1564,6.03809 52.2804,6.00809 52.3114,6.00058 52.34,5.9966 52.3656,5.99621 Z M 48.9215,4.81654 v 1.08004 l 0.5633,-0.1364 v 1.0852 l -0.5633,0.1364 v 3.66902 c 0,0.4513 0.0224,0.6974 0.0672,0.7382 0.0483,0.04 0.2429,0.0187 0.584,-0.0639 v 1.1059 l -0.8424,0.2039 c -0.4754,0.1152 -0.8147,0.1784 -1.018,0.1898 -0.2032,0.0078 -0.3824,-0.0401 -0.5374,-0.1438 -0.155,-0.1071 -0.2515,-0.2474 -0.2894,-0.4208 -0.0379,-0.1769 -0.0568,-0.6064 -0.0568,-1.2885 V 7.48864 L 46.3791,7.59751 V 6.51231 L 46.8287,6.40344 V 5.3234 Z M 42.4929,7.2478 c -0.2412,0.00238 -0.5082,0.03916 -0.801,0.11008 -0.4789,0.11595 -0.9027,0.31173 -1.2713,0.58704 -0.3686,0.27186 -0.6339,0.6014 -0.7958,0.98857 -0.1619,0.38371 -0.2429,0.8754 -0.2429,1.47481 v 1.9999 c 0,0.5099 0.0362,0.8904 0.1085,1.1415 0.0724,0.2478 0.2016,0.4609 0.3876,0.6398 0.1895,0.1746 0.4531,0.285 0.7907,0.3307 0.3376,0.0458 0.7269,0.0148 1.1679,-0.092 0.4547,-0.1101 0.8319,-0.265 1.1317,-0.465 0.3031,-0.2044 0.5529,-0.4594 0.7493,-0.7654 0.1964,-0.3059 0.3204,-0.5792 0.3721,-0.819 0.0551,-0.2408 0.0826,-0.5726 0.0826,-0.9964 V 10.876 l -1.9792,0.479 v 0.9044 c 0,0.3411 -0.0275,0.5787 -0.0827,0.7126 -0.0516,0.1296 -0.1567,0.2138 -0.3152,0.2522 -0.1274,0.0308 -0.2136,0.0069 -0.2584,-0.0718 -0.0448,-0.0788 -0.0671,-0.2734 -0.0671,-0.5835 v -1.4831 l 2.7026,-0.6542 V 9.52208 c 0,-0.6649 -0.0775,-1.16115 -0.2325,-1.48879 C 43.7882,7.70137 43.5212,7.47129 43.1388,7.34341 42.9493,7.27732 42.734,7.24539 42.4929,7.2478 Z m -0.6222,1.29088 c 0.073,0.00159 0.1235,0.03788 0.1519,0.10852 0.0379,0.09418 0.0568,0.3185 0.0568,0.67335 V 9.82181 L 41.4697,9.9696 V 9.46834 c 0,-0.38585 0.0172,-0.6259 0.0516,-0.72037 0.0345,-0.09789 0.1241,-0.1644 0.2688,-0.19947 0.0292,-0.00709 0.0562,-0.01037 0.0806,-0.00982 z m -8.5296,0.96558 -0.0362,0.65994 c 0.1619,-0.29764 0.3549,-0.53728 0.5788,-0.71898 0.2239,-0.18514 0.4789,-0.31234 0.7648,-0.38159 0.5581,-0.13515 0.9974,0.01686 1.3178,0.45603 0.1757,-0.30092 0.3738,-0.54182 0.5942,-0.72268 0.2205,-0.18431 0.4651,-0.309 0.7338,-0.37407 0.3549,-0.08593 0.6477,-0.07073 0.8785,0.04559 0.2343,0.11552 0.3842,0.29111 0.4496,0.52675 0.0655,0.2322 0.0982,0.62907 0.0982,1.19065 v 4.873 l -2.0257,0.4906 v -4.47 c 0,-0.5857 -0.0207,-0.9424 -0.062,-1.0702 C 36.595,9.87723 36.5037,9.82871 36.359,9.86375 c -0.1481,0.03587 -0.2446,0.12814 -0.2894,0.27685 -0.0413,0.1478 -0.062,0.5162 -0.062,1.1053 v 4.47 l -2.0257,0.4906 v -4.3563 c 0,-0.6718 -0.0172,-1.0707 -0.0517,-1.1967 -0.031,-0.1269 -0.1205,-0.1724 -0.2687,-0.1365 -0.093,0.0225 -0.1722,0.0779 -0.2377,0.1661 -0.0655,0.0848 -0.1016,0.1796 -0.1085,0.2847 -0.0069,0.1015 -0.0103,0.3177 -0.0103,0.6484 v 4.7542 l -2.0257,0.4906 v -6.8575 z m -4.2733,1.03014 c -0.2758,-0.0126 -0.5896,0.0234 -0.941,0.1085 -0.5581,0.1352 -1.0163,0.3546 -1.3746,0.6584 -0.3583,0.3038 -0.6063,0.6517 -0.7441,1.0434 -0.1378,0.3916 -0.2067,0.9062 -0.2067,1.5435 v 1.757 c 0,0.5822 0.0379,1.0102 0.1137,1.2847 0.0757,0.271 0.2015,0.489 0.3772,0.6532 0.1791,0.1598 0.4289,0.2522 0.7493,0.278 0.3204,0.0223 0.7114,-0.022 1.1731,-0.1338 0.4134,-0.1001 0.7785,-0.2475 1.0955,-0.4413 0.3204,-0.1982 0.5822,-0.4459 0.7855,-0.7432 0.2032,-0.3007 0.3359,-0.6013 0.3979,-0.9022 0.062,-0.3044 0.093,-0.7652 0.093,-1.3819 v -1.6794 c 0,-0.4858 -0.0344,-0.8389 -0.1034,-1.0599 -0.0654,-0.2219 -0.1894,-0.4229 -0.372,-0.6026 -0.1826,-0.1797 -0.4427,-0.2974 -0.7803,-0.3534 -0.0836,-0.0151 -0.1711,-0.0247 -0.2631,-0.029 z m -0.7834,1.2935 c 0.0769,-0.0011 0.1292,0.0296 0.1576,0.0925 0.0379,0.0804 0.0569,0.2966 0.0569,0.648 v 3.1626 c 0,0.2963 -0.0207,0.4942 -0.062,0.5938 -0.0379,0.0987 -0.1189,0.1627 -0.2429,0.1927 -0.1206,0.0292 -0.2016,8e-4 -0.2429,-0.0858 -0.0413,-0.0898 -0.062,-0.2968 -0.062,-0.6206 v -3.0954 c 0,-0.3514 0.0207,-0.5769 0.062,-0.6765 0.0413,-0.103 0.124,-0.1694 0.248,-0.1994 0.031,-0.0075 0.0597,-0.0115 0.0853,-0.0119 z m -3.0358,2.2251 -1.9688,0.4768 v -0.7907 c 0,-0.2756 -0.0224,-0.4562 -0.0672,-0.5418 -0.0448,-0.0891 -0.1275,-0.119 -0.2481,-0.0898 -0.1206,0.0292 -0.2015,0.0919 -0.2429,0.188 -0.0413,0.0961 -0.062,0.2941 -0.062,0.5938 v 3.2349 c 0,0.2446 0.031,0.4214 0.093,0.5305 0.062,0.1055 0.1533,0.1437 0.2739,0.1145 0.1413,-0.0342 0.236,-0.1209 0.2842,-0.26 0.0517,-0.14 0.0775,-0.3874 0.0775,-0.7423 v -0.8165 l 1.8604,-0.4505 c -0.0034,0.5486 -0.024,0.9653 -0.062,1.2501 -0.0345,0.2805 -0.1499,0.5892 -0.3463,0.9262 -0.1929,0.3326 -0.4461,0.611 -0.7596,0.8351 -0.3135,0.2206 -0.7011,0.3868 -1.1627,0.4986 -0.5891,0.1426 -1.0559,0.1558 -1.4004,0.0394 -0.3445,-0.1199 -0.5891,-0.3431 -0.7338,-0.6698 -0.1413,-0.331 -0.2119,-0.8307 -0.2119,-1.499 v -1.9482 c 0,-0.5822 0.0586,-1.0356 0.1757,-1.3603 0.1171,-0.3246 0.3669,-0.6487 0.7493,-0.9721 0.3824,-0.3269 0.8475,-0.5566 1.3953,-0.6893 0.5443,-0.1318 1.0094,-0.1291 1.3952,0.008 0.3859,0.1374 0.6425,0.3664 0.77,0.6869 0.1274,0.3205 0.1912,0.8029 0.1912,1.4471 z m -5.3588,-2.8002 v 8.3664 l -2.1497,0.5206 v -8.3664 z m -4.5162,2.5626 c -0.2412,0.0024 -0.5082,0.0391 -0.801,0.11 -0.4789,0.116 -0.9026,0.3118 -1.2712,0.5871 -0.3687,0.2718 -0.6339,0.6014 -0.7959,0.9885 -0.1619,0.3838 -0.2428,0.8749 -0.2428,1.4744 v 1.9999 c 0,0.5098 0.0361,0.8908 0.1085,1.142 0.0723,0.2478 0.2015,0.4609 0.3875,0.6398 0.1895,0.1745 0.4531,0.2844 0.7907,0.3302 0.3376,0.0457 0.7264,0.0153 1.1674,-0.0915 0.4547,-0.1101 0.832,-0.265 1.1317,-0.4651 0.3032,-0.2043 0.5529,-0.4594 0.7493,-0.7653 0.1964,-0.3059 0.3204,-0.5792 0.3721,-0.8191 0.0551,-0.2407 0.0832,-0.5726 0.0832,-0.9963 v -0.5064 l -1.9792,0.479 v 0.9043 c 0,0.3411 -0.0276,0.5787 -0.0827,0.7127 -0.0517,0.1296 -0.1573,0.2137 -0.3158,0.2521 -0.1274,0.0309 -0.213,0.0069 -0.2578,-0.0718 -0.0448,-0.0787 -0.0677,-0.2734 -0.0677,-0.5834 v -1.4831 l 2.7026,-0.6543 v -0.9095 c 0,-0.6649 -0.077,-1.1611 -0.232,-1.4888 -0.1516,-0.3319 -0.4186,-0.562 -0.801,-0.6898 -0.1895,-0.0661 -0.4048,-0.0981 -0.6459,-0.0956 z m -0.6227,1.2908 c 0.073,0.0016 0.124,0.0379 0.1524,0.1086 0.0379,0.0941 0.0564,0.3185 0.0564,0.6733 v 0.5013 l -0.6093,0.1478 v -0.5013 c 0,-0.3859 0.0172,-0.6259 0.0517,-0.7204 0.0344,-0.0979 0.124,-0.1644 0.2687,-0.1994 0.0293,-0.0071 0.0557,-0.0104 0.0801,-0.0098 z M 11.9523,13.175 10.986,21.7754 8.26781,22.4336 C 8.01977,21.2087 7.801,19.801 7.61153,18.2104 7.5254,18.9306 7.32386,20.4402 7.00691,22.739 l -2.70267,0.6545 -0.97152,-8.1311 2.11356,-0.5119 0.22221,2.8659 0.22737,2.7613 c 0.07925,-1.4764 0.27906,-3.4368 0.59946,-5.8812 l 2.26342,-0.5481 c 0.031,0.2371 0.11023,1.1377 0.23771,2.7019 l 0.2377,3.1205 c 0.12058,-2.0514 0.32212,-4.0794 0.60461,-6.084 z"
         id="path3112" />
      <path
         inkscape:connector-curvature="0"
         style="font-style:normal;font-variant:normal;font-weight:normal;font-stretch:normal;font-size:10.5833px;line-height:1.25;font-family:Impact;-inkscape-font-specification:Impact;opacity:1;fill:#c34e00;fill-opacity:1;stroke:none;stroke-width:0.264583"
         d="M 52.8315,4.38524 C 52.5557,4.37257 52.2419,4.40866 51.8905,4.49376 51.3324,4.62892 50.8742,4.84831 50.5159,5.15212 50.1576,5.45593 49.9096,5.80381 49.7718,6.19547 49.634,6.58713 49.5651,7.1017 49.5651,7.73904 v 1.757 c 0,0.58226 0.0379,1.01016 0.1137,1.28466 0.0758,0.2711 0.2015,0.489 0.3772,0.6532 0.1791,0.1599 0.4289,0.2528 0.7493,0.2785 0.3204,0.0224 0.7114,-0.0225 1.1731,-0.1343 0.4134,-0.1001 0.7786,-0.2474 1.0955,-0.4413 0.3204,-0.1982 0.5822,-0.4459 0.7855,-0.7431 0.2033,-0.3008 0.3359,-0.60135 0.3979,-0.90231 0.062,-0.3044 0.093,-0.76516 0.093,-1.38183 V 6.43008 C 54.3503,5.94432 54.3159,5.59121 54.247,5.37019 54.1815,5.14833 54.0575,4.94737 53.8749,4.76765 53.6923,4.58796 53.4322,4.47024 53.0946,4.41418 53.011,4.3991 52.9235,4.38947 52.8315,4.38524 Z M 52.0481,5.6787 c 0.0769,-0.00106 0.1292,0.02961 0.1576,0.0925 0.0379,0.0804 0.0569,0.29663 0.0569,0.64802 v 3.1626 c 0,0.29628 -0.0207,0.49418 -0.062,0.59378 -0.0379,0.0987 -0.1189,0.1632 -0.2429,0.1933 -0.1206,0.0291 -0.2015,10e-5 -0.2429,-0.0863 -0.0413,-0.0899 -0.062,-0.29684 -0.062,-0.62068 V 6.5665 c 0,-0.3514 0.0207,-0.57686 0.062,-0.67644 C 51.7562,5.787 51.8389,5.72059 51.9629,5.69059 51.9939,5.68308 52.0225,5.6791 52.0481,5.67871 Z M 48.604,4.49904 v 1.08004 l 0.5633,-0.1364 v 1.0852 l -0.5633,0.1364 v 3.66902 c 0,0.4513 0.0224,0.6974 0.0672,0.7382 0.0483,0.04 0.2429,0.0187 0.584,-0.0639 v 1.1059 l -0.8424,0.2039 c -0.4754,0.1152 -0.8147,0.1784 -1.018,0.1898 -0.2032,0.0078 -0.3824,-0.0401 -0.5374,-0.1438 -0.155,-0.1071 -0.2515,-0.2474 -0.2894,-0.4208 -0.0379,-0.1769 -0.0568,-0.6064 -0.0568,-1.2885 V 7.17114 L 46.0616,7.28001 V 6.19481 L 46.5112,6.08594 V 5.0059 Z M 42.1754,6.9303 c -0.2412,0.00238 -0.5082,0.03916 -0.801,0.11008 -0.4789,0.11595 -0.9027,0.31173 -1.2713,0.58704 -0.3686,0.27186 -0.6339,0.6014 -0.7958,0.98857 -0.1619,0.38371 -0.2429,0.8754 -0.2429,1.47481 v 1.9999 c 0,0.5099 0.0362,0.8904 0.1085,1.1415 0.0724,0.2478 0.2016,0.4609 0.3876,0.6398 0.1895,0.1746 0.4531,0.285 0.7907,0.3307 0.3376,0.0458 0.7269,0.0148 1.1679,-0.092 0.4547,-0.1101 0.8319,-0.265 1.1317,-0.465 0.3031,-0.2044 0.5529,-0.4594 0.7493,-0.7654 0.1964,-0.3059 0.3204,-0.5792 0.3721,-0.819 0.0551,-0.2408 0.0826,-0.5726 0.0826,-0.9964 v -0.5064 l -1.9792,0.479 v 0.9044 c 0,0.3411 -0.0275,0.5787 -0.0827,0.7126 -0.0516,0.1296 -0.1567,0.2138 -0.3152,0.2522 -0.1274,0.0308 -0.2136,0.0069 -0.2584,-0.0718 -0.0448,-0.0788 -0.0671,-0.2734 -0.0671,-0.5835 v -1.4831 l 2.7026,-0.6542 V 9.20458 c 0,-0.6649 -0.0775,-1.16115 -0.2325,-1.48879 C 43.4707,7.38387 43.2037,7.15379 42.8213,7.02591 42.6318,6.95982 42.4165,6.92789 42.1754,6.9303 Z m -0.6222,1.29088 c 0.073,0.00159 0.1235,0.03788 0.1519,0.10852 0.0379,0.09418 0.0568,0.3185 0.0568,0.67335 V 9.50431 L 41.1522,9.6521 V 9.15084 c 0,-0.38585 0.0172,-0.6259 0.0516,-0.72037 0.0345,-0.09789 0.1241,-0.1644 0.2688,-0.19947 0.0292,-0.00709 0.0562,-0.01037 0.0806,-0.00982 z m -8.5296,0.96558 -0.0362,0.65989 c 0.1619,-0.29759 0.3549,-0.53723 0.5788,-0.71893 0.2239,-0.18514 0.4789,-0.31234 0.7648,-0.38159 0.5581,-0.13515 0.9974,0.01686 1.3178,0.45603 0.1757,-0.30092 0.3738,-0.54182 0.5942,-0.72268 0.2205,-0.18431 0.4651,-0.309 0.7338,-0.37407 0.3549,-0.08593 0.6477,-0.07073 0.8785,0.04559 0.2343,0.11552 0.3842,0.29111 0.4496,0.52675 0.0655,0.2322 0.0982,0.62907 0.0982,1.19061 v 4.87304 l -2.0257,0.4906 v -4.47 c 0,-0.5857 -0.0207,-0.94239 -0.062,-1.07019 -0.0379,-0.13208 -0.1292,-0.1806 -0.2739,-0.14556 -0.1481,0.03587 -0.2446,0.12814 -0.2894,0.2768 -0.0413,0.14781 -0.062,0.51625 -0.062,1.10535 v 4.47 l -2.0257,0.4906 v -4.3563 c 0,-0.6718 -0.0172,-1.0707 -0.0517,-1.1967 -0.031,-0.1269 -0.1205,-0.1724 -0.2687,-0.1365 -0.093,0.0225 -0.1722,0.0779 -0.2377,0.1661 -0.0655,0.0848 -0.1016,0.1796 -0.1085,0.2847 -0.0069,0.1015 -0.0103,0.3177 -0.0103,0.6484 v 4.7542 l -2.0257,0.4906 V 9.68603 Z m -4.2733,1.03014 c -0.2758,-0.0126 -0.5896,0.0234 -0.941,0.1085 -0.5581,0.1352 -1.0163,0.3546 -1.3746,0.6584 -0.3583,0.3038 -0.6063,0.6517 -0.7441,1.0434 -0.1378,0.3916 -0.2067,0.9062 -0.2067,1.5435 v 1.757 c 0,0.5822 0.0379,1.0102 0.1137,1.2847 0.0757,0.271 0.2015,0.489 0.3772,0.6532 0.1791,0.1598 0.4289,0.2522 0.7493,0.278 0.3204,0.0223 0.7114,-0.022 1.1731,-0.1338 0.4134,-0.1001 0.7785,-0.2475 1.0955,-0.4413 0.3204,-0.1982 0.5822,-0.4459 0.7855,-0.7432 0.2032,-0.3007 0.3359,-0.6013 0.3979,-0.9022 0.062,-0.3044 0.093,-0.7652 0.093,-1.3819 v -1.6794 c 0,-0.4858 -0.0344,-0.8389 -0.1034,-1.0599 -0.0654,-0.2219 -0.1894,-0.4229 -0.372,-0.6026 -0.1826,-0.1797 -0.4427,-0.2974 -0.7803,-0.3534 -0.0836,-0.0151 -0.1711,-0.0247 -0.2631,-0.029 z m -0.7834,1.2935 c 0.0769,-0.0011 0.1292,0.0296 0.1576,0.0925 0.0379,0.0804 0.0569,0.2966 0.0569,0.648 v 3.1626 c 0,0.2963 -0.0207,0.4942 -0.062,0.5938 -0.0379,0.0987 -0.1189,0.1627 -0.2429,0.1927 -0.1206,0.0292 -0.2016,8e-4 -0.2429,-0.0858 -0.0413,-0.0898 -0.062,-0.2968 -0.062,-0.6206 v -3.0954 c 0,-0.3514 0.0207,-0.5769 0.062,-0.6765 0.0413,-0.103 0.124,-0.1694 0.248,-0.1994 0.031,-0.0075 0.0597,-0.0115 0.0853,-0.0119 z m -3.0358,2.2251 -1.9688,0.4768 v -0.7907 c 0,-0.2756 -0.0224,-0.4562 -0.0672,-0.5418 -0.0448,-0.0891 -0.1275,-0.119 -0.2481,-0.0898 -0.1206,0.0292 -0.2015,0.0919 -0.2429,0.188 -0.0413,0.0961 -0.062,0.2941 -0.062,0.5938 v 3.2349 c 0,0.2446 0.031,0.4214 0.093,0.5305 0.062,0.1055 0.1533,0.1437 0.2739,0.1145 0.1413,-0.0342 0.236,-0.1209 0.2842,-0.26 0.0517,-0.14 0.0775,-0.3874 0.0775,-0.7423 v -0.8165 l 1.8604,-0.4505 c -0.0034,0.5486 -0.024,0.9653 -0.062,1.2501 -0.0345,0.2805 -0.1499,0.5892 -0.3463,0.9262 -0.1929,0.3326 -0.4461,0.611 -0.7596,0.8351 -0.3135,0.2206 -0.7011,0.3868 -1.1627,0.4986 -0.5891,0.1426 -1.0559,0.1558 -1.4004,0.0394 C 20.8556,18.6119 20.611,18.3887 20.4663,18.062 20.325,17.731 20.2544,17.2313 20.2544,16.563 v -1.9482 c 0,-0.5822 0.0586,-1.0356 0.1757,-1.3603 0.1171,-0.3246 0.3669,-0.6487 0.7493,-0.9721 0.3824,-0.3269 0.8475,-0.5566 1.3953,-0.6893 0.5443,-0.1318 1.0094,-0.1291 1.3952,0.008 0.3859,0.1374 0.6425,0.3664 0.77,0.6869 0.1274,0.3205 0.1912,0.8029 0.1912,1.4471 z m -5.3588,-2.8002 v 8.3664 l -2.1497,0.5206 v -8.3664 z m -4.5162,2.5626 c -0.2412,0.0024 -0.5082,0.0391 -0.801,0.11 -0.4789,0.116 -0.9026,0.3118 -1.2712,0.5871 -0.3687,0.2718 -0.6339,0.6014 -0.7959,0.9885 -0.1619,0.3838 -0.2428,0.8749 -0.2428,1.4744 v 1.9999 c 0,0.5098 0.0361,0.8908 0.1085,1.142 0.0723,0.2478 0.2015,0.4609 0.3875,0.6398 0.1895,0.1745 0.4531,0.2844 0.7907,0.3302 0.3376,0.0457 0.7264,0.0153 1.1674,-0.0915 0.4547,-0.1101 0.832,-0.265 1.1317,-0.4651 0.3032,-0.2043 0.5529,-0.4594 0.7493,-0.7653 0.1964,-0.3059 0.3204,-0.5792 0.3721,-0.8191 0.0551,-0.2407 0.0832,-0.5726 0.0832,-0.9963 v -0.5064 l -1.9792,0.479 v 0.9043 c 0,0.3411 -0.0276,0.5787 -0.0827,0.7127 -0.0517,0.1296 -0.1573,0.2137 -0.3158,0.2521 -0.1274,0.0309 -0.213,0.0069 -0.2578,-0.0718 -0.0448,-0.0787 -0.0677,-0.2734 -0.0677,-0.5834 v -1.4831 l 2.7026,-0.6543 v -0.9095 c 0,-0.6649 -0.077,-1.1611 -0.232,-1.4888 -0.1516,-0.3319 -0.4186,-0.562 -0.801,-0.6898 -0.1895,-0.0661 -0.4048,-0.0981 -0.6459,-0.0956 z m -0.6227,1.2908 c 0.073,0.0016 0.124,0.0379 0.1524,0.1086 0.0379,0.0941 0.0564,0.3185 0.0564,0.6733 v 0.5013 l -0.6093,0.1478 v -0.5013 c 0,-0.3859 0.0172,-0.6259 0.0517,-0.7204 0.0344,-0.0979 0.124,-0.1644 0.2687,-0.1994 0.0293,-0.0071 0.0557,-0.0104 0.0801,-0.0098 z m -2.7986,-1.9312 -0.9663,8.6004 -2.71819,0.6582 C 7.70227,20.8912 7.4835,19.4835 7.29403,17.8929 7.2079,18.6131 7.00636,20.1227 6.68941,22.4215 L 3.98674,23.076 3.01522,14.9449 5.12878,14.433 5.35099,17.2989 5.57836,20.0602 C 5.65761,18.5838 5.85742,16.6234 6.17782,14.179 l 2.26342,-0.5481 c 0.031,0.2371 0.11023,1.1377 0.23771,2.7019 l 0.2377,3.1205 c 0.12058,-2.0514 0.32212,-4.0794 0.60461,-6.084 z"
         id="path3114" />
      <path
         inkscape:connector-curvature="0"
         style="font-style:normal;font-variant:normal;font-weight:normal;font-stretch:normal;font-size:10.5833px;line-height:1.25;font-family:Impact;-inkscape-font-specification:Impact;opacity:1;fill:#cb5100;fill-opacity:1;stroke:none;stroke-width:0.264583"
         d="M 52.514,4.06774 C 52.2382,4.05507 51.9244,4.09116 51.573,4.17626 51.0149,4.31142 50.5567,4.53081 50.1984,4.83462 49.8401,5.13843 49.5921,5.48631 49.4543,5.87797 49.3165,6.26963 49.2476,6.7842 49.2476,7.42154 v 1.757 c 0,0.58222 0.0379,1.01016 0.1137,1.28466 0.0758,0.2711 0.2015,0.489 0.3772,0.6532 0.1791,0.1599 0.4289,0.2528 0.7493,0.2785 0.3204,0.0224 0.7114,-0.0225 1.1731,-0.1343 0.4134,-0.1001 0.7786,-0.2474 1.0955,-0.4413 0.3204,-0.1982 0.5822,-0.4459 0.7855,-0.7431 0.2033,-0.30076 0.3359,-0.60135 0.3979,-0.90231 0.062,-0.3044 0.093,-0.76516 0.093,-1.38183 V 6.11258 c 0,-0.48576 -0.0344,-0.83887 -0.1033,-1.05989 C 53.864,4.83083 53.74,4.62987 53.5574,4.45015 53.3748,4.27046 53.1147,4.15274 52.7771,4.09668 52.6935,4.0816 52.606,4.07197 52.514,4.06774 Z M 51.7306,5.3612 c 0.0769,-0.00106 0.1292,0.02961 0.1576,0.0925 0.0379,0.0804 0.0569,0.29663 0.0569,0.64802 v 3.1626 c 0,0.29628 -0.0207,0.49418 -0.062,0.59376 -0.0379,0.09872 -0.1189,0.16322 -0.2429,0.19332 -0.1206,0.0291 -0.2015,1e-4 -0.2429,-0.08634 -0.0413,-0.0899 -0.062,-0.2968 -0.062,-0.62064 V 6.249 c 0,-0.3514 0.0207,-0.57686 0.062,-0.67644 C 51.4387,5.4695 51.5214,5.40309 51.6454,5.37309 51.6764,5.36558 51.705,5.3616 51.7306,5.36121 Z M 48.2865,4.18154 v 1.08004 l 0.5633,-0.1364 v 1.0852 l -0.5633,0.1364 v 3.66902 c 0,0.4513 0.0224,0.6974 0.0672,0.7382 0.0483,0.04 0.2429,0.0187 0.584,-0.0639 v 1.1059 l -0.8424,0.2039 c -0.4754,0.1152 -0.8147,0.1784 -1.018,0.1898 -0.2032,0.0078 -0.3824,-0.0401 -0.5374,-0.1438 -0.155,-0.1071 -0.2515,-0.2474 -0.2894,-0.4208 -0.0379,-0.1769 -0.0568,-0.6064 -0.0568,-1.2885 V 6.85364 L 45.7441,6.96251 V 5.87731 L 46.1937,5.76844 V 4.6884 Z M 41.8579,6.6128 c -0.2412,0.00238 -0.5082,0.03916 -0.801,0.11008 -0.4789,0.11595 -0.9027,0.31173 -1.2713,0.58704 -0.3686,0.27186 -0.6339,0.6014 -0.7958,0.98857 -0.1619,0.38371 -0.2429,0.8754 -0.2429,1.47485 v 1.99986 c 0,0.5099 0.0362,0.8904 0.1085,1.1415 0.0724,0.2478 0.2016,0.4609 0.3876,0.6398 0.1895,0.1746 0.4531,0.285 0.7907,0.3307 0.3376,0.0458 0.7269,0.0148 1.1679,-0.092 0.4547,-0.1101 0.8319,-0.265 1.1317,-0.465 0.3031,-0.2044 0.5529,-0.4594 0.7493,-0.7654 0.1964,-0.3059 0.3204,-0.5792 0.3721,-0.819 0.0551,-0.2408 0.0826,-0.5726 0.0826,-0.9964 V 10.241 l -1.9792,0.479 v 0.9044 c 0,0.3411 -0.0275,0.5787 -0.0827,0.7126 -0.0516,0.1296 -0.1567,0.2138 -0.3152,0.2522 C 41.0328,12.62 40.9466,12.5961 40.9018,12.5174 40.857,12.4386 40.8347,12.244 40.8347,11.9339 V 10.4508 L 43.5373,9.79659 V 8.88708 c 0,-0.6649 -0.0775,-1.16115 -0.2325,-1.48879 C 43.1532,7.06637 42.8862,6.83629 42.5038,6.70841 42.3143,6.64232 42.099,6.61039 41.8579,6.6128 Z m -0.6222,1.29088 c 0.073,0.00159 0.1235,0.03788 0.1519,0.10852 0.0379,0.09418 0.0568,0.3185 0.0568,0.67335 V 9.18681 L 40.8347,9.3346 V 8.83334 c 0,-0.38585 0.0172,-0.6259 0.0516,-0.72037 0.0345,-0.09789 0.1241,-0.1644 0.2688,-0.19947 0.0292,-0.00709 0.0562,-0.01037 0.0806,-0.00982 z m -8.5296,0.96558 -0.0362,0.65989 c 0.1619,-0.29759 0.3549,-0.53723 0.5788,-0.71893 0.2239,-0.18514 0.4789,-0.31234 0.7648,-0.38159 0.5581,-0.13515 0.9974,0.01686 1.3178,0.45603 0.1757,-0.30092 0.3738,-0.54182 0.5942,-0.72268 0.2205,-0.18431 0.4651,-0.309 0.7338,-0.37407 0.3549,-0.08593 0.6477,-0.07073 0.8785,0.04559 0.2343,0.11552 0.3842,0.29111 0.4496,0.52675 0.0655,0.2322 0.0982,0.62907 0.0982,1.19061 v 4.87304 l -2.0257,0.4906 v -4.47 c 0,-0.58566 -0.0207,-0.94239 -0.062,-1.07019 C 35.96,9.24223 35.8687,9.19371 35.724,9.22875 c -0.1481,0.03587 -0.2446,0.12814 -0.2894,0.2768 -0.0413,0.14781 -0.062,0.51625 -0.062,1.10535 v 4.47 l -2.0257,0.4906 v -4.3563 c 0,-0.6718 -0.0172,-1.0707 -0.0517,-1.1967 -0.031,-0.12688 -0.1205,-0.17237 -0.2687,-0.13649 -0.093,0.02253 -0.1722,0.07789 -0.2377,0.16609 -0.0655,0.0848 -0.1016,0.1796 -0.1085,0.2847 -0.0069,0.1015 -0.0103,0.3177 -0.0103,0.6484 v 4.7542 L 30.6443,16.226 V 9.36853 Z m -4.2733,1.03017 c -0.2758,-0.01267 -0.5896,0.02342 -0.941,0.10847 -0.5581,0.1352 -1.0163,0.3546 -1.3746,0.6584 -0.3583,0.3038 -0.6063,0.6517 -0.7441,1.0434 -0.1378,0.3916 -0.2067,0.9062 -0.2067,1.5435 v 1.757 c 0,0.5822 0.0379,1.0102 0.1137,1.2847 0.0757,0.271 0.2015,0.489 0.3772,0.6532 0.1791,0.1598 0.4289,0.2522 0.7493,0.278 0.3204,0.0223 0.7114,-0.022 1.1731,-0.1338 0.4134,-0.1001 0.7785,-0.2475 1.0955,-0.4413 0.3204,-0.1982 0.5822,-0.4459 0.7855,-0.7432 0.2032,-0.3007 0.3359,-0.6013 0.3979,-0.9022 0.062,-0.3044 0.093,-0.7652 0.093,-1.3819 v -1.6794 c 0,-0.4858 -0.0344,-0.8389 -0.1034,-1.0599 -0.0654,-0.2219 -0.1894,-0.4229 -0.372,-0.6026 C 29.2936,10.1021 29.0335,9.98443 28.6959,9.92836 28.6123,9.91328 28.5248,9.90365 28.4328,9.89942 Z m -0.7834,1.29347 c 0.0769,-0.0011 0.1292,0.0296 0.1576,0.0925 0.0379,0.0804 0.0569,0.2966 0.0569,0.648 v 3.1626 c 0,0.2963 -0.0207,0.4942 -0.062,0.5938 -0.0379,0.0987 -0.1189,0.1627 -0.2429,0.1927 -0.1206,0.0292 -0.2016,8e-4 -0.2429,-0.0858 -0.0413,-0.0898 -0.062,-0.2968 -0.062,-0.6206 v -3.0954 c 0,-0.3514 0.0207,-0.5769 0.062,-0.6765 0.0413,-0.103 0.124,-0.1694 0.248,-0.1994 0.031,-0.0075 0.0597,-0.0115 0.0853,-0.0119 z m -3.0358,2.2251 -1.9688,0.4768 v -0.7907 c 0,-0.2756 -0.0224,-0.4562 -0.0672,-0.5418 -0.0448,-0.0891 -0.1275,-0.119 -0.2481,-0.0898 -0.1206,0.0292 -0.2015,0.0919 -0.2429,0.188 -0.0413,0.0961 -0.062,0.2941 -0.062,0.5938 v 3.2349 c 0,0.2446 0.031,0.4214 0.093,0.5305 0.062,0.1055 0.1533,0.1437 0.2739,0.1145 0.1413,-0.0342 0.236,-0.1209 0.2842,-0.26 0.0517,-0.14 0.0775,-0.3874 0.0775,-0.7423 v -0.8165 l 1.8604,-0.4505 c -0.0034,0.5486 -0.024,0.9653 -0.062,1.2501 -0.0345,0.2805 -0.1499,0.5892 -0.3463,0.9262 -0.1929,0.3326 -0.4461,0.611 -0.7596,0.8351 -0.3135,0.2206 -0.7011,0.3868 -1.1627,0.4986 -0.5891,0.1426 -1.0559,0.1558 -1.4004,0.0394 -0.3445,-0.1199 -0.5891,-0.3431 -0.7338,-0.6698 -0.1413,-0.331 -0.2119,-0.8307 -0.2119,-1.499 v -1.9482 c 0,-0.5822 0.0586,-1.0356 0.1757,-1.3603 0.1171,-0.3246 0.3669,-0.6487 0.7493,-0.9721 0.3824,-0.3269 0.8475,-0.5566 1.3953,-0.6893 0.5443,-0.1318 1.0094,-0.1291 1.3952,0.008 0.3859,0.1374 0.6425,0.3664 0.77,0.6869 0.1274,0.3205 0.1912,0.8029 0.1912,1.4471 z m -5.3588,-2.8002 v 8.3664 l -2.1497,0.5206 v -8.3664 z m -4.5162,2.5626 c -0.2412,0.0024 -0.5082,0.0391 -0.801,0.11 -0.4789,0.116 -0.9026,0.3118 -1.2712,0.5871 -0.3687,0.2718 -0.6339,0.6014 -0.7959,0.9885 -0.1619,0.3838 -0.2428,0.8749 -0.2428,1.4744 v 1.9999 c 0,0.5098 0.0361,0.8908 0.1085,1.142 0.0723,0.2478 0.2015,0.4609 0.3875,0.6398 0.1895,0.1745 0.4531,0.2844 0.7907,0.3302 0.3376,0.0457 0.7264,0.0153 1.1674,-0.0915 0.4547,-0.1101 0.832,-0.265 1.1317,-0.4651 0.3032,-0.2043 0.5529,-0.4594 0.7493,-0.7653 0.1964,-0.3059 0.3204,-0.5792 0.3721,-0.8191 0.0551,-0.2407 0.0832,-0.5726 0.0832,-0.9963 v -0.5064 l -1.9792,0.479 v 0.9043 c 0,0.3411 -0.0276,0.5787 -0.0827,0.7127 -0.0517,0.1296 -0.1573,0.2137 -0.3158,0.2521 -0.1274,0.0309 -0.213,0.0069 -0.2578,-0.0718 -0.0448,-0.0787 -0.0677,-0.2734 -0.0677,-0.5834 v -1.4831 l 2.7026,-0.6543 v -0.9095 c 0,-0.6649 -0.077,-1.1611 -0.232,-1.4888 -0.1516,-0.3319 -0.4186,-0.562 -0.801,-0.6898 -0.1895,-0.0661 -0.4048,-0.0981 -0.6459,-0.0956 z m -0.6227,1.2908 c 0.073,0.0016 0.124,0.0379 0.1524,0.1086 0.0379,0.0941 0.0564,0.3185 0.0564,0.6733 v 0.5013 l -0.6093,0.1478 v -0.5013 c 0,-0.3859 0.0172,-0.6259 0.0517,-0.7204 0.0344,-0.0979 0.124,-0.1644 0.2687,-0.1994 0.0293,-0.0071 0.0557,-0.0104 0.0801,-0.0098 z M 11.3173,12.54 10.351,21.1404 7.63281,21.7986 C 7.38477,20.5737 7.166,19.166 6.97653,17.5754 6.8904,18.2956 6.68886,19.8052 6.37191,22.104 l -2.70267,0.6545 -0.97152,-8.1311 2.11356,-0.5119 0.22221,2.8659 0.22737,2.7613 c 0.07925,-1.4764 0.27906,-3.4368 0.59946,-5.8812 l 2.26342,-0.5481 c 0.031,0.2371 0.11023,1.1377 0.23771,2.7019 l 0.2377,3.1205 c 0.12058,-2.0514 0.32212,-4.0794 0.60461,-6.084 z"
         id="path3116" />
      <path
         inkscape:connector-curvature="0"
         style="font-style:normal;font-variant:normal;font-weight:normal;font-stretch:normal;font-size:10.5833px;line-height:1.25;font-family:Impact;-inkscape-font-specification:Impact;opacity:1;fill:#d45500;fill-opacity:1;stroke:none;stroke-width:0.264583"
         d="M 52.1965,3.75024 C 51.9207,3.73757 51.6069,3.77366 51.2555,3.85876 50.6974,3.99392 50.2392,4.21331 49.8809,4.51712 49.5226,4.82093 49.2746,5.16881 49.1368,5.56047 48.999,5.95213 48.9301,6.4667 48.9301,7.10404 v 1.757 c 0,0.58222 0.0379,1.0102 0.1137,1.28466 0.0758,0.2711 0.2015,0.489 0.3772,0.6532 0.1791,0.1599 0.4289,0.2528 0.7493,0.2785 0.3204,0.0224 0.7114,-0.0225 1.1731,-0.1343 0.4134,-0.1001 0.7786,-0.2474 1.0955,-0.4413 0.3204,-0.1982 0.5822,-0.4459 0.7855,-0.74314 0.2033,-0.30072 0.3359,-0.60131 0.3979,-0.90227 0.062,-0.3044 0.093,-0.76516 0.093,-1.38183 V 5.79508 C 53.7153,5.30932 53.6809,4.95621 53.612,4.73519 53.5465,4.51333 53.4225,4.31237 53.2399,4.13265 53.0573,3.95296 52.7972,3.83524 52.4596,3.77918 52.376,3.7641 52.2885,3.75447 52.1965,3.75024 Z M 51.4131,5.0437 c 0.0769,-0.00106 0.1292,0.02961 0.1576,0.0925 0.0379,0.0804 0.0569,0.29663 0.0569,0.64802 v 3.1626 c 0,0.29628 -0.0207,0.49418 -0.062,0.59376 -0.0379,0.09872 -0.1189,0.16321 -0.2429,0.19328 -0.1206,0.02919 -0.2015,1.5e-4 -0.2429,-0.0863 -0.0413,-0.0899 -0.062,-0.2968 -0.062,-0.62064 V 5.9315 c 0,-0.3514 0.0207,-0.57686 0.062,-0.67644 C 51.1212,5.152 51.2039,5.08559 51.3279,5.05559 51.3589,5.04808 51.3875,5.0441 51.4131,5.04371 Z M 47.969,3.86404 v 1.08004 l 0.5633,-0.1364 v 1.0852 l -0.5633,0.1364 v 3.669 c 0,0.45132 0.0224,0.69742 0.0672,0.73822 0.0483,0.04 0.2429,0.0187 0.584,-0.0639 v 1.1059 l -0.8424,0.2039 c -0.4754,0.1152 -0.8147,0.1784 -1.018,0.1898 C 46.5566,11.88 46.3774,11.8321 46.2224,11.7284 46.0674,11.6213 45.9709,11.481 45.933,11.3076 45.8951,11.1307 45.8762,10.7012 45.8762,10.0191 V 6.53614 L 45.4266,6.64501 V 5.55981 L 45.8762,5.45094 V 4.3709 Z M 41.5404,6.2953 c -0.2412,0.00238 -0.5082,0.03916 -0.801,0.11008 -0.4789,0.11595 -0.9027,0.31173 -1.2713,0.58704 -0.3686,0.27186 -0.6339,0.6014 -0.7958,0.98857 -0.1619,0.38371 -0.2429,0.8754 -0.2429,1.47485 v 1.99986 c 0,0.5099 0.0362,0.8904 0.1085,1.1415 0.0724,0.2478 0.2016,0.4609 0.3876,0.6398 0.1895,0.1746 0.4531,0.285 0.7907,0.3307 0.3376,0.0458 0.7269,0.0148 1.1679,-0.092 0.4547,-0.1101 0.8319,-0.265 1.1317,-0.465 0.3031,-0.2044 0.5529,-0.4594 0.7493,-0.7654 0.1964,-0.3059 0.3204,-0.5792 0.3721,-0.819 0.0551,-0.2408 0.0826,-0.5726 0.0826,-0.9964 V 9.92351 l -1.9792,0.47899 v 0.9044 c 0,0.3411 -0.0275,0.5787 -0.0827,0.7126 -0.0516,0.1296 -0.1567,0.2138 -0.3152,0.2522 -0.1274,0.0308 -0.2136,0.0069 -0.2584,-0.0718 -0.0448,-0.0788 -0.0671,-0.2734 -0.0671,-0.5835 V 10.1333 L 43.2198,9.47909 V 8.56958 c 0,-0.6649 -0.0775,-1.16115 -0.2325,-1.48879 C 42.8357,6.74887 42.5687,6.51879 42.1863,6.39091 41.9968,6.32482 41.7815,6.29289 41.5404,6.2953 Z m -0.6222,1.29088 c 0.073,0.00159 0.1235,0.03788 0.1519,0.10852 0.0379,0.09418 0.0568,0.3185 0.0568,0.67335 V 8.86931 L 40.5172,9.0171 V 8.51584 c 0,-0.38585 0.0172,-0.6259 0.0516,-0.72037 0.0345,-0.09789 0.1241,-0.1644 0.2688,-0.19947 0.0292,-0.00709 0.0562,-0.01037 0.0806,-0.00982 z m -8.5296,0.96558 -0.0362,0.65989 c 0.1619,-0.29759 0.3549,-0.53723 0.5788,-0.71893 0.2239,-0.18514 0.4789,-0.31234 0.7648,-0.38159 0.5581,-0.13515 0.9974,0.01686 1.3178,0.45603 0.1757,-0.30092 0.3738,-0.54182 0.5942,-0.72268 0.2205,-0.18431 0.4651,-0.309 0.7338,-0.37407 0.3549,-0.08593 0.6477,-0.07073 0.8785,0.04559 0.2343,0.11552 0.3842,0.29111 0.4496,0.52675 0.0655,0.2322 0.0982,0.62907 0.0982,1.19061 v 4.87304 l -2.0257,0.4906 v -4.47 c 0,-0.58566 -0.0207,-0.94239 -0.062,-1.07019 -0.0379,-0.13208 -0.1292,-0.1806 -0.2739,-0.14556 -0.1481,0.03587 -0.2446,0.12814 -0.2894,0.2768 -0.0413,0.14781 -0.062,0.51627 -0.062,1.10535 v 4.47 l -2.0257,0.4906 v -4.3563 c 0,-0.6718 -0.0172,-1.07071 -0.0517,-1.19673 C 32.9467,9.57412 32.8572,9.52863 32.709,9.56451 32.616,9.58704 32.5368,9.6424 32.4713,9.7306 c -0.0655,0.08476 -0.1016,0.17964 -0.1085,0.2847 -0.0069,0.1015 -0.0103,0.3177 -0.0103,0.6484 v 4.7542 l -2.0257,0.4906 V 9.05103 Z M 28.1153,9.58193 C 27.8395,9.56926 27.5257,9.60535 27.1743,9.69044 26.6162,9.8256 26.158,10.045 25.7997,10.3488 c -0.3583,0.3038 -0.6063,0.6517 -0.7441,1.0434 -0.1378,0.3916 -0.2067,0.9062 -0.2067,1.5435 v 1.757 c 0,0.5822 0.0379,1.0102 0.1137,1.2847 0.0757,0.271 0.2015,0.489 0.3772,0.6532 0.1791,0.1598 0.4289,0.2522 0.7493,0.278 0.3204,0.0223 0.7114,-0.022 1.1731,-0.1338 0.4134,-0.1001 0.7785,-0.2475 1.0955,-0.4413 0.3204,-0.1982 0.5822,-0.4459 0.7855,-0.7432 0.2032,-0.3007 0.3359,-0.6013 0.3979,-0.9022 0.062,-0.3044 0.093,-0.7652 0.093,-1.3819 v -1.6794 c 0,-0.4858 -0.0344,-0.8389 -0.1034,-1.0599 C 29.4653,10.345 29.3413,10.144 29.1587,9.96433 28.9761,9.78464 28.716,9.66693 28.3784,9.61086 28.2948,9.59578 28.2073,9.58615 28.1153,9.58192 Z m -0.7834,1.29347 c 0.0769,-0.0011 0.1292,0.0296 0.1576,0.0925 0.0379,0.0804 0.0569,0.2966 0.0569,0.648 v 3.1626 c 0,0.2963 -0.0207,0.4942 -0.062,0.5938 -0.0379,0.0987 -0.1189,0.1627 -0.2429,0.1927 -0.1206,0.0292 -0.2016,8e-4 -0.2429,-0.0858 -0.0413,-0.0898 -0.062,-0.2968 -0.062,-0.6206 v -3.0954 c 0,-0.3514 0.0207,-0.5769 0.062,-0.6765 0.0413,-0.103 0.124,-0.1694 0.248,-0.1994 0.031,-0.0075 0.0597,-0.0115 0.0853,-0.0119 z m -3.0358,2.2251 -1.9688,0.4768 v -0.7907 c 0,-0.2756 -0.0224,-0.4562 -0.0672,-0.5418 -0.0448,-0.0891 -0.1275,-0.119 -0.2481,-0.0898 -0.1206,0.0292 -0.2015,0.0919 -0.2429,0.188 -0.0413,0.0961 -0.062,0.2941 -0.062,0.5938 v 3.2349 c 0,0.2446 0.031,0.4214 0.093,0.5305 0.062,0.1055 0.1533,0.1437 0.2739,0.1145 0.1413,-0.0342 0.236,-0.1209 0.2842,-0.26 0.0517,-0.14 0.0775,-0.3874 0.0775,-0.7423 v -0.8165 l 1.8604,-0.4505 c -0.0034,0.5486 -0.024,0.9653 -0.062,1.2501 -0.0345,0.2805 -0.1499,0.5892 -0.3463,0.9262 -0.1929,0.3326 -0.4461,0.611 -0.7596,0.8351 -0.3135,0.2206 -0.7011,0.3868 -1.1627,0.4986 C 21.3764,18.2 20.9096,18.2132 20.5651,18.0968 20.2206,17.9769 19.976,17.7537 19.8313,17.427 19.69,17.096 19.6194,16.5963 19.6194,15.928 v -1.9482 c 0,-0.5822 0.0586,-1.0356 0.1757,-1.3603 0.1171,-0.3246 0.3669,-0.6487 0.7493,-0.9721 0.3824,-0.3269 0.8475,-0.5566 1.3953,-0.6893 0.5443,-0.1318 1.0094,-0.1291 1.3952,0.008 0.3859,0.1374 0.6425,0.3664 0.77,0.6869 0.1274,0.3205 0.1912,0.8029 0.1912,1.4471 z m -5.3588,-2.8002 v 8.3664 l -2.1497,0.5206 v -8.3664 z m -4.5162,2.5626 c -0.2412,0.0024 -0.5082,0.0391 -0.801,0.11 -0.4789,0.116 -0.9026,0.3118 -1.2712,0.5871 -0.3687,0.2718 -0.6339,0.6014 -0.7959,0.9885 -0.1619,0.3838 -0.2428,0.8749 -0.2428,1.4744 v 1.9999 c 0,0.5098 0.0361,0.8908 0.1085,1.142 0.0723,0.2478 0.2015,0.4609 0.3875,0.6398 0.1895,0.1745 0.4531,0.2844 0.7907,0.3302 0.3376,0.0457 0.7264,0.0153 1.1674,-0.0915 0.4547,-0.1101 0.832,-0.265 1.1317,-0.4651 0.3032,-0.2043 0.5529,-0.4594 0.7493,-0.7653 0.1964,-0.3059 0.3204,-0.5792 0.3721,-0.8191 0.0551,-0.2407 0.0832,-0.5726 0.0832,-0.9963 v -0.5064 l -1.9792,0.479 v 0.9043 c 0,0.3411 -0.0276,0.5787 -0.0827,0.7127 -0.0517,0.1296 -0.1573,0.2137 -0.3158,0.2521 -0.1274,0.0309 -0.213,0.0069 -0.2578,-0.0718 C 13.4203,18.6887 13.3974,18.494 13.3974,18.184 V 16.7009 L 16.1,16.0466 v -0.9095 c 0,-0.6649 -0.077,-1.1611 -0.232,-1.4888 -0.1516,-0.3319 -0.4186,-0.562 -0.801,-0.6898 -0.1895,-0.0661 -0.4048,-0.0981 -0.6459,-0.0956 z m -0.6227,1.2908 c 0.073,0.0016 0.124,0.0379 0.1524,0.1086 0.0379,0.0941 0.0564,0.3185 0.0564,0.6733 v 0.5013 l -0.6093,0.1478 v -0.5013 c 0,-0.3859 0.0172,-0.6259 0.0517,-0.7204 0.0344,-0.0979 0.124,-0.1644 0.2687,-0.1994 0.0293,-0.0071 0.0557,-0.0104 0.0801,-0.0098 z m -2.7986,-1.9312 -0.9663,8.6004 -2.71819,0.6582 C 7.06727,20.2562 6.8485,18.8485 6.65903,17.2579 6.5729,17.9781 6.37136,19.4877 6.05441,21.7865 L 3.35174,22.441 2.38022,14.3099 4.49378,13.798 4.71599,16.6639 4.94336,19.4252 C 5.02261,17.9488 5.22242,15.9884 5.54282,13.544 l 2.26342,-0.5481 c 0.031,0.2371 0.11023,1.1377 0.23771,2.7019 l 0.2377,3.1205 c 0.12058,-2.0514 0.32212,-4.0794 0.60461,-6.084 z"
         id="path3118" />
    </g>
    <text
       id="text1456"
       y="37.478031"
       x="26.597311"
       style="font-style:normal;font-weight:normal;font-size:10.5833px;line-height:1.25;font-family:sans-serif;fill:#000000;fill-opacity:1;stroke:none;stroke-width:0.264583"
       xml:space="preserve"><tspan
         style="stroke-width:0.264583"
         y="37.478031"
         x="26.597311"
         id="tspan1454"
         sodipodi:role="line" /></text>
    <path
       inkscape:connector-curvature="0"
       d="m 128.85296,0.57958634 c -0.70904,-0.0349805 -1.51574,0.0646286 -2.41906,0.29952156 -1.43466,0.3730289 -2.61256,0.9785641 -3.53358,1.8170798 -0.92106,0.8385157 -1.5587,1.7986701 -1.91293,2.8796598 -0.35425,1.0810046 -0.53137,2.5012272 -0.53137,4.2602958 v 4.8493547 c 0,1.606942 0.0974,2.78818 0.29224,3.545736 0.19484,0.748058 0.51809,1.349728 0.96975,1.802816 0.46051,0.441344 1.10259,0.697735 1.92622,0.768761 0.82362,0.06164 1.8288,-0.06231 3.01551,-0.370829 1.06274,-0.276315 2.00149,-0.682916 2.81624,-1.218044 0.82362,-0.546961 1.4967,-1.230525 2.0192,-2.050989 0.52255,-0.829979 0.86351,-1.659629 1.02288,-2.490287 0.15939,-0.840152 0.23912,-2.111863 0.23912,-3.813876 V 6.2233795 c 0,-1.3407049 -0.0885,-2.3152821 -0.26567,-2.9253006 -0.16828,-0.6123411 -0.48708,-1.167014 -0.95647,-1.6630398 -0.46938,-0.4959459 -1.13801,-0.82083641 -2.00591,-0.9755775 -0.21476,-0.0416239 -0.43982,-0.0682056 -0.67617,-0.0798753 z m -2.01388,3.56997756 c 0.19763,-0.00294 0.33215,0.08173 0.40516,0.2553048 0.0973,0.2219111 0.14613,0.8186893 0.14613,1.7885561 v 8.7288382 c 0,0.81774 -0.0532,1.363949 -0.1594,1.638796 -0.0973,0.272465 -0.30553,0.450443 -0.62435,0.533428 -0.31,0.08056 -0.51811,4.39e-4 -0.62437,-0.238186 -0.10627,-0.248112 -0.1594,-0.819164 -0.1594,-1.712967 V 6.5999139 c 0,-0.9698667 0.0532,-1.5921392 0.1594,-1.8670001 0.10629,-0.2844419 0.31884,-0.4677431 0.63765,-0.5505396 0.0797,-0.020727 0.15332,-0.031694 0.2192,-0.032789 z M 117.98546,0.89366919 V 3.8746009 l 1.44798,-0.3764616 v 2.9951719 l -1.44798,0.3764689 V 16.996311 q 0,1.868425 0.17276,2.03748 0.1861,0.165597 1.5011,-0.176364 v 3.052225 l -2.16531,0.56299 q -1.83321,0.476653 -2.61697,0.523658 -0.78377,0.03257 -1.38157,-0.396695 -0.59778,-0.443594 -0.74389,-1.161559 -0.14602,-0.732206 -0.14602,-3.556225 V 8.2687157 L 111.44985,8.569201 V 5.5740293 l 1.15571,-0.3004782 V 2.2926195 Z M 101.45963,7.6040152 c -0.61993,0.00658 -1.30629,0.1080719 -2.059057,0.3038007 -1.230995,0.3200494 -2.320318,0.8604017 -3.267913,1.6202543 -0.947605,0.7503378 -1.629523,1.6598858 -2.045762,2.7284748 -0.416239,1.059054 -0.624357,2.416117 -0.624357,4.070606 v 5.5197 c 0,1.407258 0.09298,2.457351 0.278969,3.150646 0.185986,0.683806 0.51807,1.272001 0.996311,1.765736 0.487092,0.481829 1.164603,0.786594 2.032481,0.912818 0.867907,0.126218 1.868647,0.04091 3.002233,-0.253867 1.168995,-0.303942 2.138745,-0.731504 2.909235,-1.283657 0.77934,-0.563946 1.42142,-1.267919 1.92621,-2.112315 0.50483,-0.8444 0.82365,-1.598565 0.95646,-2.260656 0.14172,-0.66441 0.21254,-1.580336 0.21254,-2.749865 v -1.397764 l -5.08785,1.322164 v 2.49599 c 0,0.941348 -0.0708,1.597177 -0.21254,1.96684 -0.13282,0.357771 -0.40295,0.590038 -0.810327,0.69602 -0.327658,0.08517 -0.549047,0.01904 -0.66421,-0.198251 -0.115167,-0.217298 -0.172695,-0.754498 -0.172695,-1.61027 v -4.093422 l 6.947632,-1.805666 v -2.510253 c 0,-1.835139 -0.19928,-3.204822 -0.59779,-4.1091182 -0.38966,-0.9160834 -1.07601,-1.5511282 -2.05905,-1.9040824 -0.48709,-0.1823876 -1.0406,-0.2705317 -1.66052,-0.2638632 z m -1.599426,3.5628498 c 0.187656,0.0043 0.317546,0.104551 0.390556,0.299522 0.0974,0.259933 0.14614,0.87906 0.14614,1.858442 v 1.38349 l -1.567548,0.407914 v -1.383491 c 0,-1.06496 0.04423,-1.727485 0.132854,-1.98823 0.08855,-0.270187 0.318822,-0.453766 0.690783,-0.550547 0.07529,-0.01957 0.144682,-0.02862 0.20722,-0.02711 z m -21.926433,2.665032 -0.09305,1.821307 q 0.62436,-1.232042 1.487846,-1.984264 0.863449,-0.766514 1.966056,-1.053196 2.152017,-0.559537 3.387441,1.258653 0.677498,-1.245845 1.527686,-1.994612 0.85019,-0.763058 1.886345,-1.032465 1.368278,-0.355743 2.258309,0.125852 0.90333,0.478259 1.155711,1.453844 0.252437,0.961286 0.252437,3.286104 v 13.449776 l -5.207385,1.353951 V 18.179586 q 0,-2.424673 -0.159372,-2.953743 -0.146007,-0.546844 -0.704044,-0.40175 -0.571227,0.148489 -0.743922,0.763972 -0.159389,0.611924 -0.159389,3.050876 v 12.337258 l -5.207391,1.353953 V 20.306683 q 0,-2.781251 -0.132903,-3.302945 -0.119536,-0.525179 -0.690782,-0.376659 -0.358685,0.09329 -0.611074,0.45841 -0.252437,0.350911 -0.278964,0.785667 -0.02645,0.420518 -0.02645,1.789732 v 13.121715 l -5.207389,1.35396 V 15.209889 Z m -10.985149,2.843264 c -0.709043,-0.03499 -1.515723,0.06462 -2.419052,0.299514 -1.434672,0.373029 -2.612546,0.978571 -3.53359,1.817086 -0.921032,0.838509 -1.558675,1.798683 -1.912926,2.87966 -0.354234,1.081002 -0.531365,2.501223 -0.531365,4.260292 v 4.849356 c 0,1.606932 0.09741,2.78816 0.292251,3.545726 0.194831,0.748056 0.5181,1.349738 0.969747,1.802817 0.460524,0.441162 1.102585,0.696129 1.926207,0.767345 0.823615,0.06155 1.828795,-0.06083 3.015509,-0.369407 1.062742,-0.276322 2.001493,-0.682913 2.816251,-1.218045 0.823616,-0.546948 1.496686,-1.230507 2.019197,-2.050995 0.522528,-0.829958 0.863498,-1.659606 1.022878,-2.490281 0.159389,-0.840149 0.239123,-2.11186 0.239123,-3.813874 v -4.63541 c 0,-1.340704 -0.08855,-2.315275 -0.265688,-2.9253 -0.168277,-0.612353 -0.487096,-1.167028 -0.956462,-1.663039 -0.469366,-0.495953 -1.138008,-0.82083 -2.005913,-0.975577 -0.214756,-0.04162 -0.43982,-0.06821 -0.676167,-0.07988 z m -2.013882,3.569975 c 0.197579,-0.003 0.332035,0.08177 0.405172,0.255302 0.09735,0.221933 0.14612,0.818681 0.14612,1.788555 v 8.728827 c 0,0.817742 -0.0531,1.363936 -0.159405,1.638794 -0.09741,0.272442 -0.305528,0.449021 -0.624356,0.53201 -0.309986,0.08057 -0.518106,0.0022 -0.624358,-0.236755 -0.106241,-0.248098 -0.159406,-0.819156 -0.159406,-1.712961 v -8.543413 c 0,-0.969873 0.05318,-1.592139 0.159406,-1.867001 0.106275,-0.284279 0.318814,-0.467559 0.637642,-0.550546 0.07968,-0.02069 0.153335,-0.03169 0.219173,-0.03279 z m -7.803961,6.141315 -5.061253,1.315948 v -2.182176 q 0,-1.141025 -0.172748,-1.495467 -0.172747,-0.368707 -0.637649,-0.247851 -0.46493,0.120893 -0.624338,0.518912 -0.159389,0.397998 -0.159389,1.638874 v 8.928467 q 0,1.012655 0.23907,1.463973 0.23907,0.437052 0.704071,0.316165 0.544644,-0.141587 0.730605,-0.717718 0.199225,-0.579525 0.199225,-2.048571 v -2.25353 l 4.782277,-1.243415 q -0.01293,2.271112 -0.159389,3.450216 -0.132903,1.161334 -0.890033,2.556273 -0.743894,1.377227 -1.952765,2.304841 -1.208851,0.913346 -2.988922,1.376174 -2.271601,0.590617 -3.60001,0.10874 -1.328408,-0.496115 -1.886344,-1.848666 -0.544664,-1.370215 -0.544664,-4.137189 v -5.377077 q 0,-2.4104 0.45166,-3.754422 0.451661,-1.344051 1.926216,-2.683045 1.474518,-1.353266 3.58672,-1.902425 2.098883,-0.545732 3.586719,0.02208 1.487815,0.568752 1.979326,1.895772 0.491504,1.327015 0.491504,3.994137 z M 43.355137,18.657869 v 23.09138 l -5.526176,1.436836 V 20.094713 Z m -11.609621,7.072738 c -0.619929,0.0067 -1.306276,0.108072 -2.059044,0.303802 -1.230999,0.320063 -2.320307,0.860415 -3.267914,1.620245 -0.947591,0.750347 -1.629525,1.659894 -2.045763,2.728474 -0.416246,1.059077 -0.624357,2.414693 -0.624357,4.069182 v 5.519701 c 0,1.407261 0.09298,2.458784 0.278965,3.152082 0.185984,0.683803 0.518088,1.272023 0.996317,1.765737 0.487081,0.481823 1.164574,0.785162 2.03248,0.911385 0.8679,0.126183 1.867327,0.04228 3.000897,-0.252459 1.169019,-0.303954 2.138762,-0.731518 2.909237,-1.28365 0.779351,-0.563961 1.421418,-1.26792 1.926207,-2.112323 0.504828,-0.844379 0.823647,-1.598557 0.956461,-2.260648 0.14172,-0.664432 0.213875,-1.580342 0.213875,-2.749874 v -1.397754 l -5.087843,1.322166 v 2.495991 c 0,0.941348 -0.07082,1.597199 -0.212541,1.966832 -0.132854,0.357774 -0.404287,0.590046 -0.811663,0.696028 -0.327643,0.08517 -0.547719,0.01904 -0.66288,-0.198253 -0.115167,-0.217297 -0.174034,-0.754498 -0.174034,-1.610269 v -4.093426 l 6.947632,-1.805675 V 32.00765 c 0,-1.835139 -0.19794,-3.204835 -0.59646,-4.109111 -0.389677,-0.916106 -1.076032,-1.551149 -2.059045,-1.904082 -0.487092,-0.182383 -1.040599,-0.270537 -1.660528,-0.263859 z m -1.600747,3.562848 c 0.187658,0.0044 0.318882,0.104545 0.391891,0.299516 0.09733,0.259911 0.144813,0.879062 0.144813,1.858443 v 1.383496 l -1.566211,0.407914 v -1.38349 c 0,-1.064968 0.04427,-1.727507 0.132854,-1.988235 0.08855,-0.27018 0.318825,-0.453761 0.69078,-0.550541 0.07529,-0.0196 0.143339,-0.02862 0.20591,-0.02705 z M 22.95069,23.963149 20.466569,47.700427 13.47911,49.517216 Q 12.522648,44.445899 11.792023,37.861071 11.45992,40.842776 10.237757,50.359988 L 3.2901682,52.166423 0.79273008,29.724389 6.2259497,28.311703 l 0.5712246,7.909944 0.5844873,7.621216 q 0.305551,-6.11259 1.5409765,-16.232316 l 5.8184569,-1.512823 q 0.119535,0.981547 0.611069,7.457409 l 0.611066,8.612697 q 0.464951,-8.493132 1.554239,-16.791988 z"
       style="font-style:normal;font-variant:normal;font-weight:normal;font-stretch:normal;font-size:10.5833px;line-height:1.25;font-family:Impact;-inkscape-font-specification:Impact;fill:url(#linearGradient3064);fill-opacity:1;stroke:none;stroke-width:0.704757"
       id="path3034" />
    <path
       inkscape:connector-curvature="0"
       d="m 197.87106,19.587448 -5.80426,1.595871 v 26.41836 l 5.43075,-1.493088 0.37351,-1.734561 c 0.48851,0.540244 1.02488,0.89891 1.60914,1.075331 0.59384,0.174713 1.23079,0.167529 1.91083,-0.01932 0.94822,-0.260821 1.76715,-0.768694 2.45674,-1.524084 0.68962,-0.766208 1.12539,-1.559934 1.30742,-2.382366 0.1915,-0.835954 0.28733,-2.048984 0.28733,-3.637212 v -9.758022 c 0,-1.599129 -0.0334,-2.634219 -0.10076,-3.105271 -0.0576,-0.473702 -0.23935,-0.92411 -0.54594,-1.351113 -0.3065,-0.427001 -0.75188,-0.701926 -1.33616,-0.82403 -0.58425,-0.122266 -1.27388,-0.0737 -2.06885,0.145171 -0.68962,0.189889 -1.33132,0.524734 -1.92519,1.003543 -0.58422,0.465311 -1.11583,1.077952 -1.59476,1.840628 z m 1.09768,7.938559 c 0.22801,0.0025 0.38932,0.121989 0.48275,0.35734 0.12465,0.303162 0.18687,1.013896 0.18687,2.13438 v 9.12322 c 0,1.283658 -0.0576,2.10987 -0.17247,2.478635 -0.10534,0.366145 -0.34004,0.598208 -0.70397,0.698424 -0.35435,0.09715 -0.5938,0 -0.71837,-0.292093 -0.11483,-0.294606 -0.17222,-1.024189 -0.17222,-2.188198 v -9.3337 c 0,-1.207509 0.0531,-1.971593 0.15787,-2.294322 0.10533,-0.333577 0.33521,-0.550321 0.68961,-0.647777 0.0909,-0.02483 0.17406,-0.03671 0.24988,-0.03589 z m -9.01364,-0.995896 v 21.653518 l -5.90485,1.624107 0.10077,-1.822634 q -0.60341,1.259258 -1.49416,2.059058 -0.87639,0.779512 -2.02576,1.095645 -1.30736,0.359602 -2.1694,0.07452 -0.86202,-0.285138 -1.27868,-1.035311 -0.40225,-0.754204 -0.50281,-1.65662 -0.10076,-0.918729 -0.10076,-3.70908 V 30.209056 l 5.80427,-1.596451 v 14.734811 q 0,2.529256 0.12924,2.966913 0.14363,0.433682 0.74708,0.26772 0.64652,-0.177745 0.76144,-0.698946 0.12924,-0.525095 0.12924,-3.184871 V 28.126566 Z m -15.53073,-0.493105 v 26.418278 l -6.04851,1.66363 V 43.022889 l -1.81023,0.497907 v 11.096 l -6.0485,1.66363 V 29.862144 l 6.0485,-1.66363 v 9.447936 l 1.81023,-0.497907 v -9.447907 z m -16.9243,6.531504 v 3.410392 l 1.56599,-0.4307 v 3.426675 l -1.56599,0.430728 V 50.99115 q 0,2.137609 0.18689,2.330976 0.20103,0.189336 1.62347,-0.201759 v 3.491952 l -2.34184,0.644105 q -1.98269,0.545325 -2.83034,0.599117 -0.84765,0.03725 -1.49415,-0.453857 -0.6465,-0.507513 -0.80457,-1.328894 -0.15783,-0.837722 -0.15783,-4.068603 V 41.006086 l -1.24998,0.343788 v -3.426703 l 1.24998,-0.343788 v -3.410364 z m -8.18925,5.140648 v 21.65352 l -5.97669,1.643868 v -21.65352 z m -8.13179,7.197195 -6.04854,1.663603 v -2.398707 q 0,-2.268157 -0.17222,-2.791871 -0.17249,-0.523686 -0.8189,-0.345886 -0.56036,0.154006 -0.76148,0.698976 -0.20103,0.544828 -0.20103,2.568199 v 12.678845 q 0,1.778612 0.20103,2.294431 0.20127,0.499455 0.80456,0.333521 0.66089,-0.181884 0.89076,-0.881385 0.24447,-0.703613 0.24447,-2.547498 v -3.132954 l -1.22121,0.335865 v -4.014144 l 7.08297,-1.948161 v 14.180045 l -3.80728,1.047181 -0.56033,-1.738731 q -0.61775,1.393728 -1.56601,2.274588 -0.93383,0.860657 -2.21251,1.212313 -1.52289,0.41886 -2.85905,-0.0458 -1.32174,-0.484963 -2.01138,-1.535427 -0.68958,-1.050462 -0.86199,-2.357443 -0.17237,-1.323237 -0.17237,-4.048314 v -7.848755 q 0,-3.785698 0.35921,-5.597846 0.35917,-1.812146 2.05446,-3.698097 1.70967,-1.90618 4.41068,-2.649067 2.65788,-0.731075 4.41072,0.02844 1.75275,0.758038 2.28432,2.325178 0.53158,1.550828 0.53158,4.798048 z m -20.28625,0.619073 -1.66656,16.123321 q -0.38791,3.827128 -0.66087,5.256571 -0.25856,1.425468 -0.8764,2.476565 -0.61779,1.051072 -1.72403,1.763267 -1.09189,0.724588 -3.50554,1.388457 l -3.51991,0.96813 v -3.459352 q 1.3505,-0.371416 1.73839,-0.624951 0.38793,-0.269931 0.38793,-0.808357 0,-0.261097 -0.35919,-2.169348 l -3.17512,-17.239308 5.2727,-1.450226 1.89645,14.082673 0.91946,-14.857161 z m -14.41009,-0.801317 v 26.418282 l -5.28704,1.454171 V 54.761366 l -2.111945,18.416098 -3.749784,1.031365 -2.226905,-16.814762 v 17.427265 l -5.287042,1.454171 V 49.857224 l 7.830001,-2.153591 q 0.344821,2.287507 0.732715,5.411712 l 0.833279,6.493694 1.379251,-12.715498 z m 42.82813,-11.779711 v 3.443043 l -5.97669,1.643839 v -3.443014 z"
       style="font-style:normal;font-variant:normal;font-weight:normal;font-stretch:normal;font-size:10.5833px;line-height:1.25;font-family:Impact;-inkscape-font-specification:Impact;fill:url(#linearGradient3085);fill-opacity:1;stroke:none;stroke-width:0.783939"
       id="path3014" />
  </g>
</svg>
